<?xml version="1.0" encoding="UTF-8"?>
<svg width="68px" height="68px" viewBox="0 0 68 68" version="1.1" xmlns="http://www.w3.org/2000/svg" xmlns:xlink="http://www.w3.org/1999/xlink">
    <!-- Generator: Sketch 57.1 (83088) - https://sketch.com -->
    <title>Image / Tools we use / img-ansible</title>
    <desc>Created with Sketch.</desc>
    <g id="Image-/-Tools-we-use-/-img-ansible" stroke="none" stroke-width="1" fill="none" fill-rule="evenodd">
        <g id="ansible" transform="translate(10.000000, 9.000000)" fill-rule="nonzero">
            <path d="M48.7388571,24.3558095 C48.7388571,37.7758095 37.8607619,48.6539048 24.440381,48.6539048 C11.0213333,48.6539048 0.142095238,37.7758095 0.142095238,24.3558095 C0.142095238,10.9367619 11.0213333,0.0575238095 24.440381,0.0575238095 C37.8605714,0.0575238095 48.7388571,10.9367619 48.7388571,24.3558095" id="Path" fill="#1A1918"></path>
            <path d="M24.8495238,14.9007619 L31.1373333,30.42 L21.639619,22.9384762 L24.8495238,14.9009524 L24.8495238,14.9007619 Z M36.0198095,33.9950476 L26.3478095,10.7184762 C26.071619,10.0472381 25.519619,9.69180952 24.8495238,9.69180952 C24.1780952,9.69180952 23.5859048,10.0472381 23.3097143,10.7184762 L12.6940952,36.2499048 L16.3255238,36.2499048 L20.5278095,25.7232381 L33.0687619,35.8546667 C33.5729524,36.2624762 33.9369524,36.4470476 34.4099048,36.4470476 C35.3573333,36.4470476 36.1855238,35.7365714 36.1855238,34.711619 C36.1855238,34.5447619 36.1264762,34.2798095 36.0198095,33.9950476 L36.0198095,33.9950476 Z" id="Shape" fill="#FFFFFF"></path>
        </g>
    </g>
</svg>