<?xml version="1.0" encoding="UTF-8"?>
<svg width="68px" height="68px" viewBox="0 0 68 68" version="1.1" xmlns="http://www.w3.org/2000/svg" xmlns:xlink="http://www.w3.org/1999/xlink">
    <!-- Generator: Sketch 57.1 (83088) - https://sketch.com -->
    <title>Image / Tools we use / img-aws</title>
    <desc>Created with Sketch.</desc>
    <g id="Image-/-Tools-we-use-/-img-aws" stroke="none" stroke-width="1" fill="none" fill-rule="evenodd">
        <g id="aws-logo" transform="translate(4.000000, 10.000000)" fill="#F7A80D" fill-rule="nonzero">
            <path d="M17.527886,30.0984375 L12.034136,32.4582904 L17.1220037,34.6341176 L23.021636,32.4582904 L17.527886,30.0984375 Z M9.26834559,33.0482537 L9.08426471,43.6675919 L17.1219485,47.2073713 L17.1219485,36.1822059 L9.26834559,33.0482537 L9.26834559,33.0482537 Z M25.7873713,33.0482537 L18.5236765,35.813989 L18.5236765,46.2115809 L25.7873713,43.2617647 L25.7873713,33.0482537 Z M34.452739,0.0102573529 L28.9212132,2.37016544 L34.0468015,4.5459375 L39.9464338,2.37016544 L34.452739,0.0102573529 L34.452739,0.0102573529 Z M26.7832169,3.14536765 L26.7832169,13.7647059 L33.6409743,15.7563971 L33.8627757,6.09512868 L26.7832169,3.14536765 L26.7832169,3.14536765 Z M42.1223713,3.73527574 L35.6327206,6.50106618 L35.6327206,16.9363787 L42.1223713,13.9865625 L42.1223713,3.73527574 L42.1223713,3.73527574 Z M8.47544118,14.9564338 L2.98169118,17.3162868 L8.06955882,19.492114 L13.9691912,17.3162868 L8.47544118,14.9564338 L8.47544118,14.9564338 Z M0.215955882,17.90625 L0.031875,28.5256434 L8.06955882,32.0654228 L8.06955882,21.0401471 L0.215955882,17.90625 Z M16.7349816,17.90625 L9.47134191,20.6719853 L9.47134191,31.0695221 L16.7349816,28.1197059 L16.7349816,17.90625 Z M26.1743934,14.5646691 L20.6806434,16.9245221 L25.768511,19.1003493 L31.6681434,16.9245221 L26.1743934,14.5646691 Z M17.9148529,17.5145404 L17.7307721,28.1338787 L25.7684559,31.6736581 L25.7684559,20.6495956 L17.9148529,17.5145404 Z M34.4338787,17.5145404 L27.170239,20.2802757 L27.170239,30.6778125 L34.4338787,27.7279963 L34.4338787,17.5145404 Z M51.7399081,0.0102573529 L46.2462132,2.37011029 L51.3340809,4.54588235 L57.2336581,2.37011029 L51.7399081,0.0102573529 Z M43.4803676,2.96007353 L43.2963419,13.5794118 L51.3340257,17.1191912 L51.3340257,6.09512868 L43.4803676,2.96007353 Z M59.9993934,2.96007353 L52.7357537,5.72580882 L52.7357537,16.1233456 L59.9993934,13.1735294 L59.9993934,2.96007353 Z" id="Shape"></path>
        </g>
    </g>
</svg>