<svg xmlns="http://www.w3.org/2000/svg" width="68" height="68" viewBox="0 0 68 68">
    <g fill="#0091E2" fill-rule="nonzero">
        <path d="M63.37 28.243c-.163-.13-1.68-1.276-4.882-1.276-.846.004-1.69.076-2.523.217-.62-4.247-4.13-6.318-4.288-6.41l-.86-.497-.565.816a11.523 11.523 0 0 0-1.529 3.574c-.573 2.424-.224 4.701 1.007 6.648-1.487.829-3.873 1.033-4.356 1.05H5.877a1.877 1.877 0 0 0-1.874 1.867c-.047 3.46.54 6.9 1.73 10.15 1.36 3.568 3.384 6.196 6.018 7.805 2.95 1.807 7.745 2.84 13.18 2.84a39.363 39.363 0 0 0 7.32-.664 30.6 30.6 0 0 0 9.553-3.47 26.263 26.263 0 0 0 6.519-5.336c3.13-3.543 4.993-7.488 6.38-10.994h.552c3.426 0 5.533-1.371 6.695-2.52a7.307 7.307 0 0 0 1.766-2.615l.245-.718-.59-.467z"/>
        <path d="M9.538 31.21h5.293a.462.462 0 0 0 .462-.463v-4.715a.462.462 0 0 0-.46-.464H9.538a.462.462 0 0 0-.462.462v4.717c0 .255.207.462.462.462M16.832 31.21h5.293a.462.462 0 0 0 .462-.463v-4.715a.462.462 0 0 0-.46-.464h-5.295a.465.465 0 0 0-.465.464v4.715c.002.256.21.462.465.462M24.237 31.21h5.292a.462.462 0 0 0 .463-.463v-4.715a.462.462 0 0 0-.46-.464h-5.295a.462.462 0 0 0-.463.462v4.717c0 .255.207.462.463.462M31.554 31.21h5.293a.465.465 0 0 0 .464-.463v-4.715a.465.465 0 0 0-.464-.464h-5.293a.462.462 0 0 0-.462.462v4.717c0 .255.206.462.462.462M16.832 24.427h5.293a.465.465 0 0 0 .462-.465v-4.715a.462.462 0 0 0-.462-.462h-5.293a.465.465 0 0 0-.465.462v4.715a.467.467 0 0 0 .465.465M24.237 24.427h5.292a.465.465 0 0 0 .463-.465v-4.715a.462.462 0 0 0-.463-.462h-5.292a.462.462 0 0 0-.463.462v4.715c0 .255.207.463.463.465M31.554 24.427h5.293a.467.467 0 0 0 .464-.465v-4.715a.465.465 0 0 0-.464-.462h-5.293a.462.462 0 0 0-.462.462v4.715c0 .255.206.463.462.465M31.554 17.641h5.293a.465.465 0 0 0 .464-.462v-4.717a.465.465 0 0 0-.464-.462h-5.293a.462.462 0 0 0-.462.462v4.717c0 .255.206.462.462.462M38.935 31.21h5.293a.465.465 0 0 0 .465-.463v-4.715a.465.465 0 0 0-.465-.464h-5.293a.462.462 0 0 0-.462.462v4.717c0 .255.207.462.462.462"/>
    </g>
</svg>
