<?xml version="1.0" encoding="UTF-8"?>
<svg width="68px" height="68px" viewBox="0 0 68 68" version="1.1" xmlns="http://www.w3.org/2000/svg" xmlns:xlink="http://www.w3.org/1999/xlink">
    <!-- Generator: Sketch 57.1 (83088) - https://sketch.com -->
    <title>Image / Tools we use / img-github</title>
    <desc>Created with Sketch.</desc>
    <g id="Image-/-Tools-we-use-/-img-github" stroke="none" stroke-width="1" fill="none" fill-rule="evenodd">
        <g id="github-1" transform="translate(4.000000, 4.000000)" fill="#000000" fill-rule="nonzero">
            <path d="M30,0 C13.4246809,0 0,13.4246809 0,30 C0,44.0987234 9.67404255,55.8 22.7259574,59.0987234 C22.5753191,58.7234043 22.5012766,58.1974468 22.5012766,57.6740426 L22.5012766,52.572766 L18.7506383,52.572766 C16.7259574,52.572766 14.8493617,51.6740426 14.0246809,50.0221277 C13.0493617,48.2221277 12.8987234,45.4468085 10.4246809,43.7208511 C9.67404255,43.1208511 10.2740426,42.5208511 11.0987234,42.5948936 C12.6740426,43.0442553 13.9480851,44.0961702 15.1480851,45.6689362 C16.3480851,47.2442553 16.8740426,47.6195745 19.1234043,47.6195745 C20.172766,47.6195745 21.8221277,47.5455319 23.3234043,47.3182979 C24.1480851,45.2170213 25.572766,43.3429787 27.2987234,42.4442553 C17.2493617,41.2442553 12.4493617,36.293617 12.4493617,29.5429787 C12.4493617,26.6170213 13.7234043,23.8417021 15.8246809,21.4417021 C15.1506383,19.1157447 14.2493617,14.3157447 16.1259574,12.4417021 C20.627234,12.4417021 23.3259574,15.3676596 24,16.1157447 C26.2493617,15.3651064 28.7259574,14.9157447 31.2740426,14.9157447 C33.8987234,14.9157447 36.2987234,15.3651064 38.5480851,16.1157447 C39.2221277,15.3651064 41.9234043,12.4417021 46.4221277,12.4417021 C48.2221277,14.2417021 47.3974468,19.1157447 46.6468085,21.4417021 C48.7480851,23.7676596 49.9480851,26.6170213 49.9480851,29.5429787 C49.9480851,36.293617 45.2221277,41.2442553 35.2493617,42.293617 C38.0246809,43.7182979 39.9753191,47.7676596 39.9753191,50.7676596 L39.9753191,57.6 C39.9753191,57.8246809 39.9012766,58.0493617 39.9012766,58.2740426 C51.6,54.2246809 60,43.1259574 60,30 C60,13.4246809 46.5753191,0 30,0 L30,0 Z" id="Path"></path>
        </g>
    </g>
</svg>