<?xml version="1.0" encoding="UTF-8"?>
<svg width="68px" height="68px" viewBox="0 0 68 68" version="1.1" xmlns="http://www.w3.org/2000/svg" xmlns:xlink="http://www.w3.org/1999/xlink">
    <!-- Generator: Sketch 57.1 (83088) - https://sketch.com -->
    <title>Image / Tools we use / img-grafana</title>
    <desc>Created with Sketch.</desc>
    <defs>
        <linearGradient x1="49.9586545%" y1="122.467936%" x2="49.9586545%" y2="31.122875%" id="linearGradient-1">
            <stop stop-color="#FFF100" offset="0%"></stop>
            <stop stop-color="#F05A28" offset="100%"></stop>
        </linearGradient>
    </defs>
    <g id="Image-/-Tools-we-use-/-img-grafana" stroke="none" stroke-width="1" fill="none" fill-rule="evenodd">
        <g id="Grafana_-The-open-observability-platform-_-Grafana-Labs-1" transform="translate(8.000000, 6.000000)" fill="url(#linearGradient-1)" fill-rule="nonzero">
            <path d="M51.6553488,24.7906977 C51.5706977,23.8474419 51.4074419,22.7590698 51.0930233,21.555814 C50.7786047,20.3586047 50.3130233,19.0465116 49.6418605,17.68 C48.9586047,16.3255814 48.0697674,14.9106977 46.9209302,13.544186 C46.4734884,13.0060465 45.9837209,12.48 45.4516279,11.96 C46.2437209,8.81581395 44.4902326,6.09488372 44.4902326,6.09488372 C41.4669767,5.90744186 39.544186,7.03209302 38.8306977,7.55209302 C38.7097674,7.50372093 38.5948837,7.44930233 38.4739535,7.40093023 C37.96,7.18930233 37.427907,6.99581395 36.8837209,6.82651163 C36.3395349,6.6572093 35.7832558,6.5 35.2148837,6.36093023 C34.6465116,6.22790698 34.0660465,6.11302326 33.4795349,6.02232558 C33.3767442,6.00418605 33.2739535,5.99209302 33.1711628,5.98 C31.8530233,1.75953488 28.0618605,0 28.0618605,0 C23.8413953,2.67860465 23.0372093,6.42744186 23.0372093,6.42744186 C23.0372093,6.42744186 23.0190698,6.51209302 22.9948837,6.65116279 C22.7590698,6.71767442 22.5293023,6.78418605 22.2934884,6.85674419 C21.9669767,6.95348837 21.6525581,7.0744186 21.3260465,7.18930233 C21.0055814,7.31627907 20.6851163,7.4372093 20.3646512,7.57627907 C19.7297674,7.84837209 19.0948837,8.15674419 18.4781395,8.50139535 C17.8795349,8.84 17.2930233,9.20883721 16.7186047,9.60790698 C16.6339535,9.57162791 16.5734884,9.54139535 16.5734884,9.54139535 C10.7265116,7.31023256 5.53255814,9.99488372 5.53255814,9.99488372 C5.06093023,16.2167442 7.86651163,20.1348837 8.4227907,20.8423256 C8.28372093,21.2293023 8.15674419,21.6162791 8.03581395,22.0093023 C7.60046512,23.4181395 7.28,24.8632558 7.08046512,26.3627907 C7.05023256,26.5744186 7.02604651,26.792093 7.00186047,27.0097674 C1.60232558,29.6762791 0,35.1483721 0,35.1483721 C4.51069767,40.3362791 9.76511628,40.6567442 9.76511628,40.6567442 C9.77116279,40.6506977 9.7772093,40.6506977 9.7772093,40.6446512 C10.4483721,41.835814 11.2223256,42.9725581 12.0869767,44.0306977 C12.4497674,44.472093 12.8367442,44.9013953 13.2297674,45.3125581 C11.5851163,50.0106977 13.4595349,53.9288372 13.4595349,53.9288372 C18.4781395,54.1162791 21.7795349,51.7339535 22.4688372,51.1837209 C22.9706977,51.3530233 23.4725581,51.504186 23.9865116,51.6372093 C25.5283721,52.0362791 27.1065116,52.2660465 28.6846512,52.3386047 C29.0776744,52.3567442 29.4706977,52.3627907 29.8697674,52.3627907 L30.0632558,52.3627907 L30.1902326,52.3567442 L30.4381395,52.3506977 L30.6860465,52.3386047 L30.692093,52.3446512 C33.0562791,55.7186047 37.2162791,56.1962791 37.2162791,56.1962791 C40.1730233,53.0762791 40.3423256,49.9865116 40.3423256,49.3153488 L40.3423256,49.3153488 C40.3423256,49.3153488 40.3423256,49.2911628 40.3423256,49.2730233 C40.3423256,49.2186047 40.3423256,49.1762791 40.3423256,49.1762791 C40.3423256,49.1762791 40.3423256,49.1762791 40.3423256,49.1762791 C40.3423256,49.127907 40.3362791,49.0855814 40.3362791,49.0311628 C40.9590698,48.595814 41.5516279,48.1302326 42.107907,47.6283721 C43.2930233,46.5581395 44.3269767,45.3367442 45.1855814,44.0246512 C45.264186,43.9037209 45.3427907,43.7767442 45.4213953,43.6497674 C48.7711628,43.8432558 51.1293023,41.575814 51.1293023,41.575814 C50.5730233,38.0869767 48.5837209,36.387907 48.1725581,36.0613953 L48.1725581,36.0613953 C48.1725581,36.0613953 48.1544186,36.0493023 48.1302326,36.0311628 C48.1060465,36.0130233 48.0939535,36.0009302 48.0939535,36.0009302 C48.0939535,36.0009302 48.0939535,36.0009302 48.0939535,36.0009302 C48.0697674,35.9888372 48.0455814,35.9706977 48.0213953,35.9525581 C48.0395349,35.7409302 48.0576744,35.5353488 48.0697674,35.3237209 C48.0939535,34.9488372 48.1060465,34.5739535 48.1060465,34.1990698 L48.1060465,33.9209302 L48.1060465,33.7818605 L48.1060465,33.7093023 C48.1060465,33.6125581 48.1060465,33.6488372 48.1060465,33.6125581 L48.0939535,33.3767442 L48.075814,33.0623256 C48.0697674,32.9534884 48.0637209,32.8567442 48.0516279,32.76 C48.0455814,32.6632558 48.0334884,32.5665116 48.0213953,32.4697674 L47.9851163,32.1795349 L47.9427907,31.8893023 C47.8883721,31.5083721 47.8097674,31.1274419 47.7251163,30.7465116 C47.3744186,29.2409302 46.787907,27.8139535 46.0139535,26.532093 C45.24,25.2502326 44.2725581,24.1134884 43.1902326,23.1581395 C42.1018605,22.1967442 40.8865116,21.4288372 39.6106977,20.8544186 C38.3348837,20.28 36.9925581,19.9111628 35.6562791,19.7418605 C34.9911628,19.6572093 34.32,19.6209302 33.6609302,19.6269767 L33.4130233,19.6330233 L33.3525581,19.6330233 C33.3344186,19.6330233 33.2618605,19.6330233 33.267907,19.6330233 L33.1651163,19.6390698 L32.9232558,19.6572093 C32.8325581,19.6632558 32.735814,19.6693023 32.6511628,19.6813953 C32.3125581,19.7116279 31.9739535,19.76 31.6474419,19.8265116 C30.3232558,20.0744186 29.0716279,20.552093 27.9651163,21.2111628 C26.8646512,21.8702326 25.9032558,22.6986047 25.1232558,23.6297674 C24.3432558,24.5669767 23.7386047,25.6009302 23.3213953,26.6711628 C22.904186,27.7413953 22.6744186,28.847907 22.607907,29.924186 C22.5897674,30.1902326 22.5837209,30.4623256 22.5897674,30.7223256 C22.5897674,30.7888372 22.5897674,30.8553488 22.595814,30.9218605 L22.6018605,31.1395349 C22.6139535,31.2665116 22.62,31.3995349 22.632093,31.5265116 C22.6865116,32.0706977 22.7832558,32.5906977 22.9283721,33.0986047 C23.2186047,34.1023256 23.684186,35.0153488 24.2646512,35.7893023 C24.8390698,36.5632558 25.5283721,37.204186 26.26,37.7060465 C26.9916279,38.207907 27.7716279,38.5646512 28.5455814,38.7883721 C29.3195349,39.0181395 30.0874419,39.1148837 30.8130233,39.1148837 C30.9037209,39.1148837 30.9944186,39.1148837 31.0851163,39.1088372 C31.1334884,39.1088372 31.1818605,39.1027907 31.2302326,39.1027907 C31.2786047,39.1027907 31.3269767,39.0967442 31.3753488,39.0967442 C31.4539535,39.0906977 31.5265116,39.0786047 31.6051163,39.0725581 C31.6232558,39.0725581 31.6474419,39.0665116 31.6716279,39.0665116 L31.744186,39.0544186 C31.7925581,39.0483721 31.8348837,39.0423256 31.8832558,39.0362791 C31.98,39.024186 32.0586047,39.0060465 32.1493023,38.987907 C32.2339535,38.9697674 32.3186047,38.9576744 32.4032558,38.9334884 C32.5725581,38.8972093 32.7297674,38.8488372 32.8869767,38.7944186 C33.2013953,38.6916279 33.4976744,38.5646512 33.775814,38.4255814 C34.0539535,38.2804651 34.307907,38.1232558 34.5437209,37.96 C34.6102326,37.9116279 34.6767442,37.8632558 34.7432558,37.8088372 C34.9972093,37.6093023 35.0395349,37.2404651 34.8339535,36.9925581 C34.6586047,36.7748837 34.3502326,36.7204651 34.1083721,36.8534884 C34.047907,36.8837209 33.9874419,36.92 33.9269767,36.9502326 C33.7153488,37.0530233 33.4976744,37.1437209 33.2618605,37.2223256 C33.0260465,37.2948837 32.784186,37.3553488 32.5302326,37.4037209 C32.4032558,37.4218605 32.2762791,37.44 32.1432558,37.452093 C32.0767442,37.4581395 32.0102326,37.464186 31.9497674,37.464186 C31.8832558,37.464186 31.8167442,37.4702326 31.7562791,37.4702326 C31.695814,37.4702326 31.6293023,37.4702326 31.5688372,37.464186 C31.4902326,37.4581395 31.4116279,37.4581395 31.3330233,37.452093 C31.3330233,37.452093 31.2906977,37.452093 31.3269767,37.452093 L31.3027907,37.452093 L31.2483721,37.4460465 C31.212093,37.44 31.175814,37.44 31.1455814,37.4339535 C31.0730233,37.427907 31.0065116,37.415814 30.9339535,37.4097674 C30.3655814,37.3311628 29.7911628,37.167907 29.2409302,36.9139535 C28.6846512,36.6660465 28.1525581,36.3153488 27.6748837,35.8860465 C27.1972093,35.4567442 26.78,34.9367442 26.4534884,34.3502326 C26.1269767,33.7637209 25.8972093,33.1167442 25.7883721,32.4334884 C25.7339535,32.0948837 25.7097674,31.7381395 25.7218605,31.3934884 C25.727907,31.2967442 25.727907,31.2060465 25.7339535,31.1093023 C25.7339535,31.1334884 25.7339535,31.0972093 25.7339535,31.0911628 L25.7339535,31.0548837 L25.74,30.9823256 C25.7460465,30.9339535 25.7460465,30.8916279 25.752093,30.8432558 C25.7702326,30.655814 25.8004651,30.4683721 25.8306977,30.2809302 C26.0906977,28.7934884 26.8344186,27.3423256 27.9893023,26.2418605 C28.2795349,25.9697674 28.587907,25.7097674 28.9204651,25.4860465 C29.2530233,25.2562791 29.6037209,25.0567442 29.9665116,24.8874419 C30.3353488,24.7181395 30.7162791,24.5790698 31.1093023,24.4762791 C31.5023256,24.3734884 31.9074419,24.3009302 32.3125581,24.2646512 C32.5181395,24.2465116 32.7237209,24.2404651 32.9293023,24.2404651 C32.9837209,24.2404651 33.0260465,24.2404651 33.0683721,24.2404651 L33.2376744,24.2465116 L33.3404651,24.2525581 C33.3827907,24.2525581 33.3404651,24.2525581 33.3586047,24.2525581 L33.4009302,24.2525581 L33.5702326,24.2646512 C34.0116279,24.3009302 34.4530233,24.3613953 34.8883721,24.464186 C35.7590698,24.6576744 36.6055814,24.9781395 37.3976744,25.4134884 C38.975814,26.2902326 40.324186,27.6567442 41.1465116,29.3074419 C41.5637209,30.1297674 41.8539535,31.0125581 41.9990698,31.9255814 C42.0353488,32.1553488 42.0595349,32.3851163 42.0776744,32.6148837 L42.0897674,32.7902326 L42.095814,32.9655814 C42.1018605,33.0260465 42.1018605,33.0804651 42.1018605,33.1409302 C42.1018605,33.2013953 42.107907,33.2618605 42.1018605,33.304186 L42.1018605,33.4553488 L42.095814,33.6246512 C42.0897674,33.7395349 42.0837209,33.9209302 42.0776744,34.035814 C42.0595349,34.2897674 42.0353488,34.5376744 42.0051163,34.7916279 C41.9748837,35.0395349 41.9325581,35.2874419 41.8902326,35.5353488 C41.8418605,35.7832558 41.7874419,36.0251163 41.7269767,36.2669767 C41.6060465,36.7506977 41.4488372,37.2344186 41.2613953,37.7 C40.8925581,38.6372093 40.3967442,39.5260465 39.804186,40.3483721 C38.6130233,41.9869767 36.9865116,43.3232558 35.1362791,44.1697674 C34.2111628,44.5869767 33.2316279,44.8953488 32.2339535,45.0586047 C31.732093,45.1432558 31.224186,45.1916279 30.7162791,45.2097674 L30.6195349,45.215814 L30.5409302,45.215814 L30.3776744,45.215814 L30.1297674,45.215814 L30.0027907,45.215814 C30.0693023,45.215814 29.9906977,45.215814 29.9967442,45.215814 L29.9483721,45.215814 C29.6762791,45.2097674 29.404186,45.1976744 29.132093,45.1734884 C28.0437209,45.0948837 26.9734884,44.9013953 25.9334884,44.5990698 C24.8934884,44.2967442 23.8837209,43.8916279 22.9283721,43.3837209 C21.0176744,42.3618605 19.3125581,40.9651163 17.9762791,39.2781395 C17.3051163,38.4376744 16.7186047,37.5367442 16.2348837,36.5874419 C15.7511628,35.6381395 15.3702326,34.6404651 15.0860465,33.6246512 C14.807907,32.6027907 14.6325581,31.5627907 14.5660465,30.5106977 L14.5539535,30.3111628 L14.547907,30.2627907 L14.547907,30.2204651 L14.547907,30.135814 L14.5418605,29.9604651 L14.5418605,29.9181395 L14.5418605,29.8576744 L14.5418605,29.7367442 L14.535814,29.4948837 L14.535814,29.4465116 C14.535814,29.4525581 14.535814,29.4525581 14.535814,29.4283721 L14.535814,29.3316279 C14.535814,29.2046512 14.5418605,29.0776744 14.5418605,28.9446512 C14.56,28.4246512 14.6023256,27.8925581 14.6748837,27.3604651 C14.7413953,26.8283721 14.832093,26.2902326 14.9409302,25.7581395 C15.0497674,25.2260465 15.1827907,24.7 15.327907,24.1860465 C15.624186,23.152093 15.9930233,22.1483721 16.4344186,21.1990698 C17.3111628,19.3004651 18.46,17.6255814 19.8446512,16.2832558 C20.1893023,15.9446512 20.5460465,15.624186 20.9209302,15.327907 C21.2897674,15.0316279 21.6767442,14.7534884 22.075814,14.4934884 C22.4688372,14.2334884 22.88,13.9916279 23.3032558,13.7739535 C23.5088372,13.6590698 23.7265116,13.5623256 23.9381395,13.4595349 C24.0469767,13.4111628 24.155814,13.3627907 24.2646512,13.3144186 C24.3734884,13.2660465 24.4823256,13.2176744 24.5911628,13.1753488 C25.0265116,12.987907 25.48,12.8367442 25.9334884,12.6916279 C26.0483721,12.6553488 26.1632558,12.6251163 26.2781395,12.5888372 C26.3930233,12.5525581 26.507907,12.5283721 26.6227907,12.492093 C26.8525581,12.4255814 27.0883721,12.3711628 27.3181395,12.3167442 C27.4330233,12.2865116 27.5539535,12.2623256 27.6688372,12.2381395 C27.7837209,12.2139535 27.9046512,12.1897674 28.0195349,12.1655814 C28.1404651,12.1413953 28.2553488,12.1232558 28.3762791,12.0990698 L28.5516279,12.0688372 L28.7269767,12.0446512 C28.847907,12.0265116 28.9627907,12.0083721 29.0837209,11.9902326 C29.2167442,11.9660465 29.3497674,11.96 29.4827907,11.935814 C29.5916279,11.9237209 29.7730233,11.8995349 29.8818605,11.8874419 C29.9665116,11.8813953 30.0511628,11.8693023 30.135814,11.8632558 L30.3051163,11.8451163 L30.3897674,11.8390698 L30.4865116,11.8330233 C30.6195349,11.8269767 30.7525581,11.8148837 30.8916279,11.8088372 L31.0911628,11.7967442 C31.0911628,11.7967442 31.1637209,11.7967442 31.1032558,11.7967442 L31.1455814,11.7967442 L31.2302326,11.7906977 C31.3451163,11.7846512 31.46,11.7786047 31.5748837,11.7725581 C32.0283721,11.7604651 32.4818605,11.7604651 32.9353488,11.7725581 C33.8362791,11.8088372 34.7190698,11.9055814 35.5776744,12.0688372 C37.2948837,12.3893023 38.9093023,12.9395349 40.3725581,13.6651163 C41.835814,14.3786047 43.147907,15.2613953 44.2846512,16.2167442 C44.3572093,16.2772093 44.4237209,16.3376744 44.4962791,16.3981395 C44.5627907,16.4586047 44.6353488,16.5190698 44.7018605,16.5795349 C44.8409302,16.7004651 44.9739535,16.8274419 45.1069767,16.9483721 C45.24,17.0693023 45.3669767,17.1962791 45.4939535,17.3232558 C45.6209302,17.4502326 45.747907,17.5772093 45.8627907,17.704186 C46.3465116,18.2181395 46.7939535,18.732093 47.1930233,19.252093 C48.0032558,20.292093 48.6502326,21.344186 49.164186,22.335814 C49.1944186,22.3962791 49.2306977,22.4567442 49.2609302,22.5232558 C49.2911628,22.5837209 49.3213953,22.644186 49.3516279,22.7106977 C49.412093,22.8316279 49.4725581,22.9525581 49.5269767,23.0734884 C49.5813953,23.1944186 49.6418605,23.3153488 49.6902326,23.4302326 C49.7446512,23.5511628 49.7930233,23.6660465 49.8413953,23.7809302 C50.0348837,24.2465116 50.2102326,24.687907 50.3493023,25.1051163 C50.5851163,25.7762791 50.7604651,26.3869767 50.8934884,26.9190698 C50.947907,27.1306977 51.1474419,27.2697674 51.3651163,27.2516279 C51.5888372,27.2334884 51.764186,27.0460465 51.7702326,26.8223256 C51.7339535,26.2176744 51.7218605,25.5525581 51.6553488,24.7906977 Z" id="Path"></path>
        </g>
    </g>
</svg>