<?xml version="1.0" encoding="UTF-8"?>
<svg width="68px" height="68px" viewBox="0 0 68 68" version="1.1" xmlns="http://www.w3.org/2000/svg" xmlns:xlink="http://www.w3.org/1999/xlink">
    <!-- Generator: Sketch 57.1 (83088) - https://sketch.com -->
    <title>Image / Tools we use / img-graylog</title>
    <desc>Created with Sketch.</desc>
    <g id="Image-/-Tools-we-use-/-img-graylog" stroke="none" stroke-width="1" fill="none" fill-rule="evenodd">
        <g id="graylog" transform="translate(7.000000, 7.000000)" fill-rule="nonzero">
            <path d="M30.8605781,15.8359355 C30.49109,15.8526448 30.1828462,16.1329395 30.1201875,16.5091935 C30.1201875,16.5091935 27.5821875,33.4275242 27.3199922,33.4275242 C27.0580078,33.4275242 24.4360547,20.7150968 24.4360547,20.7150968 C24.3590294,20.3748352 24.0793029,20.1239161 23.7421521,20.092655 C23.4050013,20.0613939 23.0864338,20.2568384 22.9518984,20.5774839 L20.3307891,26.8155726 L18.8354531,26.8155726 C18.5262187,26.1488468 17.8721016,25.6850565 17.1080859,25.6850565 C16.0584743,25.7011149 15.2157547,26.5840077 15.2157547,27.6675968 C15.2157547,28.7511858 16.0584743,29.6340786 17.1080859,29.6501371 C17.9047969,29.6501371 18.5878125,29.1493306 18.8786953,28.4362258 L20.8458984,28.4362258 C21.1586323,28.4361954 21.4414912,28.2444771 21.5658281,27.9482661 C21.5658281,27.9482661 23.2626094,23.468879 23.4480234,23.468879 C23.6334375,23.468879 26.676,37.6970081 26.676,37.6970081 C26.7589968,38.063403 27.0754961,38.3225806 27.4400156,38.3225806 C27.8374219,38.3106048 28.150875,38.0288468 28.2141562,37.6488871 C28.2141562,37.6488871 30.8285156,20.4895161 31.0542187,20.4895161 C31.2799219,20.4895161 33.9025078,31.7607097 33.9025078,31.7607097 C33.988915,32.1025592 34.2799953,32.3471647 34.6218047,32.3651613 C34.9633491,32.382639 35.2767989,32.1706264 35.3976328,31.8404032 L37.4724141,26.1177097 L38.8559531,28.3101532 C38.9742891,27.2887258 38.9481328,26.2553226 38.7857109,25.2110323 L37.9563047,23.8710484 C37.7973201,23.6103448 37.5087454,23.4654126 37.2119062,23.4971855 C36.9152935,23.5291466 36.6616429,23.7313801 36.5567344,24.0195484 L34.7960391,28.875629 L31.654125,16.4412581 C31.5628755,16.0845102 31.2505051,15.8357936 30.8930625,15.8352823 C30.8823047,15.8352823 30.8713359,15.8352823 30.8605781,15.8359355 L30.8605781,15.8359355 Z" id="Path" fill="#8D8E92"></path>
            <path d="M27,45.3578226 C17.2483594,45.3578226 9.34305469,37.1509113 9.34305469,27.0274355 C9.34305469,16.9037419 17.2483594,8.6966129 27,8.6966129 C36.7516406,8.6966129 44.6569453,16.9033065 44.6569453,27.0272177 C44.6569453,37.1506935 36.7516406,45.3578226 27,45.3578226 M27,0.116491935 C12.0881953,0.116491935 0,12.1787419 0,27.0583548 C0,41.93775 12.0881953,54 27,54 C41.9118047,54 54,41.93775 54,27.0583548 C54,12.1787419 41.9118047,0.116491935 27,0.116491935" id="Shape" fill="#C4222F"></path>
        </g>
    </g>
</svg>