<?xml version="1.0" encoding="UTF-8"?>
<svg width="68px" height="68px" viewBox="0 0 68 68" version="1.1" xmlns="http://www.w3.org/2000/svg" xmlns:xlink="http://www.w3.org/1999/xlink">
    <!-- Generator: Sketch 57.1 (83088) - https://sketch.com -->
    <title>img-iterm+hyper</title>
    <desc>Created with Sketch.</desc>
    <defs>
        <linearGradient x1="50%" y1="0%" x2="50%" y2="100%" id="linearGradient-1">
            <stop stop-color="#FAFCFA" offset="0%"></stop>
            <stop stop-color="#DCE6DD" offset="100%"></stop>
        </linearGradient>
    </defs>
    <g id="img-iterm+hyper" stroke="none" stroke-width="1" fill="none" fill-rule="evenodd">
        <g id="2-tools">
            <rect id="Rectangle" fill="#D8D8D8" opacity="0" x="0" y="0" width="128" height="52"></rect>
            <g id="Group" stroke-width="1">
                <g id="Image-/-Tools-we-use-/-img-iterm">
                    <path d="M13,15 L55,15 C56.6568542,15 58,16.3431458 58,18 L58,54 C58,55.6568542 56.6568542,57 55,57 L13,57 C11.3431458,57 10,55.6568542 10,54 L10,18 C10,16.3431458 11.3431458,15 13,15 Z" id="Rectangle" fill="#20272A" fill-rule="evenodd"></path>
                    <path d="M55,14 C56.6568542,14 58,15.3431458 58,17 L58,20 L10,20 L10,17 C10,15.3431458 11.3431458,14 13,14 L55,14 Z" id="Combined-Shape" fill="url(#linearGradient-1)" fill-rule="evenodd"></path>
                    <path d="M17.6008065,34.5 L17.6008065,33.2514156 C17.1814495,33.2038503 16.8145177,33.0988117 16.5,32.9362967 C16.1854823,32.7737817 15.921372,32.5815413 15.7076613,32.3595696 C15.4939505,32.137598 15.3286296,31.8938292 15.2116935,31.6282559 C15.0947575,31.3626827 15.0241937,31.103059 15,30.8493771 L16.3548387,30.4807475 C16.3870969,30.8216325 16.5020151,31.1387301 16.6995968,31.4320498 C16.8971784,31.7253695 17.1975786,31.9195918 17.6008065,32.0147225 L17.6008065,29.8267271 L17.3830645,29.7791619 C16.7379,29.6364659 16.2298406,29.3827878 15.858871,29.01812 C15.4879014,28.6534523 15.3024194,28.1778059 15.3024194,27.5911665 C15.3024194,27.2978468 15.3588704,27.0203864 15.4717742,26.7587769 C15.584678,26.4971674 15.7439506,26.2613261 15.9495968,26.0512458 C16.155243,25.8411654 16.3991921,25.6687436 16.6814516,25.5339751 C16.9637111,25.3992066 17.2701596,25.308041 17.6008065,25.2604757 L17.6008065,24 L18.7137097,24 L18.7137097,25.2723669 C19.0685502,25.3278598 19.3749987,25.4269529 19.6330645,25.5696489 C19.8911303,25.712345 20.1088701,25.8748575 20.2862903,26.0571914 C20.4637106,26.2395253 20.6028221,26.4357294 20.703629,26.6458097 C20.804436,26.8558901 20.8749998,27.0600217 20.9153226,27.2582106 L19.608871,27.6625142 C19.5927419,27.575311 19.5665324,27.4781999 19.5302419,27.3711778 C19.4939514,27.2641558 19.4395165,27.1571353 19.3669355,27.0501133 C19.2943545,26.9430912 19.2056457,26.8439982 19.1008065,26.7528313 C18.9959672,26.6616643 18.8669362,26.5883355 18.7137097,26.5328426 L18.7137097,28.6613817 L18.8225806,28.6851642 C19.5483907,28.8437154 20.0927401,29.1271214 20.4556452,29.5353907 C20.8185502,29.94366 21,30.4133609 21,30.9445074 C21,31.2140444 20.9516134,31.4756499 20.8548387,31.7293318 C20.758064,31.9830137 20.6129042,32.2129095 20.4193548,32.419026 C20.2258055,32.6251426 19.9858885,32.8015281 19.6995968,32.948188 C19.413305,33.0948478 19.0846793,33.191959 18.7137097,33.2395243 L18.7137097,34.5 L17.6008065,34.5 Z M16.5,27.429878 C16.5,27.6768305 16.5599309,27.8986271 16.6797945,28.0952744 C16.7996581,28.2919217 16.9897247,28.4268289 17.25,28.5 L17.25,26.25 C17.0034234,26.3323175 16.8167815,26.4832306 16.6900685,26.7027439 C16.5633555,26.9222572 16.5,27.1646328 16.5,27.429878 Z M19.5,31.097561 C19.5,30.8506085 19.4400691,30.6310985 19.3202055,30.4390244 C19.2003419,30.2469503 19.0102753,30.1006103 18.75,30 L18.75,32.25 C19.0102753,32.1768289 19.2003419,32.0327755 19.3202055,31.8178354 C19.4400691,31.6028953 19.5,31.3628062 19.5,31.097561 Z" id="$" fill="#0AE826" fill-rule="nonzero"></path>
                    <rect id="Rectangle" fill="#177F29" fill-rule="evenodd" x="23" y="24" width="6" height="10"></rect>
                </g>
            </g>
        </g>
    </g>
</svg>