<?xml version="1.0" encoding="UTF-8"?>
<svg width="68px" height="68px" viewBox="0 0 68 68" version="1.1" xmlns="http://www.w3.org/2000/svg" xmlns:xlink="http://www.w3.org/1999/xlink">
    <!-- Generator: Sketch 57.1 (83088) - https://sketch.com -->
    <title>Image / Tools we use / img-java</title>
    <desc>Created with Sketch.</desc>
    <g id="Image-/-Tools-we-use-/-img-java" stroke="none" stroke-width="1" fill="none" fill-rule="evenodd">
        <g id="java-14" transform="translate(10.000000, 2.000000)" fill-rule="nonzero">
            <path d="M14.3157225,46.3826012 C14.3157225,46.3826012 12.027052,47.713526 15.9445665,48.1638728 C20.6906358,48.7052601 23.1161272,48.6277457 28.3463584,47.6377457 C28.3463584,47.6377457 29.7215029,48.4999422 31.6416763,49.2468208 C19.9172254,54.2717341 5.1065896,48.9556647 14.3157225,46.3826012 M12.8830058,39.8252601 C12.8830058,39.8252601 10.3160116,41.7254913 14.236474,42.1309249 C19.3063006,42.6539306 23.31,42.696763 30.2380925,41.3627168 C30.2380925,41.3627168 31.1963584,42.3341618 32.7031214,42.8654913 C18.527341,47.0106936 2.73815029,43.1923699 12.8830058,39.8252601" id="Shape" fill="#5382A1"></path>
            <path d="M24.9610405,28.7020231 C27.8500578,32.0280347 24.2020231,35.0210983 24.2020231,35.0210983 C24.2020231,35.0210983 31.5374566,31.2343353 28.1686127,26.4922543 C25.0222543,22.070289 22.6092486,19.8728324 35.6717341,12.2972254 C35.6717341,12.2972254 15.1680347,17.4180347 24.9610405,28.7018497" id="Path" fill="#E76F00"></path>
            <path d="M40.4677457,51.2327168 C40.4677457,51.2327168 42.1614451,52.6281503 38.6023699,53.7078035 C31.8348555,55.7580347 10.4349711,56.3771098 4.49011561,53.7894798 C2.35317919,52.86 6.36069364,51.5698266 7.62121387,51.2989595 C8.93583815,51.0138728 9.68722543,51.0671098 9.68722543,51.0671098 C7.31063584,49.3928324 -5.67398844,54.3544509 3.0917341,55.7752023 C26.9968786,59.6519653 46.6683815,54.0296532 40.4677457,51.2327168 M15.416185,33.0312139 C15.416185,33.0312139 4.53104046,35.616763 11.5616185,36.5554335 C14.5300578,36.9528902 20.4476879,36.8630636 25.9598844,36.4010983 C30.4647399,36.0213295 34.9881503,35.213237 34.9881503,35.213237 C34.9881503,35.213237 33.399711,35.893526 32.2505202,36.6782081 C21.1966474,39.5854335 -0.157456647,38.2330058 5.99011561,35.2591908 C11.1891329,32.7461272 15.4163584,33.0312139 15.4163584,33.0312139 M34.943237,43.9460116 C46.1802312,38.1069364 40.9846821,32.4957225 37.3583237,33.2517919 C36.469422,33.4366474 36.0731792,33.5968786 36.0731792,33.5968786 C36.0731792,33.5968786 36.4031792,33.0801156 37.0333526,32.8564162 C44.207341,30.3341618 49.7247399,40.2952023 34.7174566,44.2402892 C34.7174566,44.2404624 34.8913873,44.0850867 34.943237,43.9460116" id="Shape" fill="#5382A1"></path>
            <path d="M28.1686127,0.0641618497 C28.1686127,0.0641618497 34.3917919,6.28976879 22.2662428,15.8621965 C12.542948,23.5411561 20.0490173,27.919422 22.2622543,32.9217919 C16.5865318,27.8009827 12.4212139,23.2930058 15.2157225,19.0975145 C19.317052,12.9384971 30.679422,9.95254335 28.1686127,0.0641618497" id="Path" fill="#E76F00"></path>
            <path d="M16.5204624,59.7684971 C27.3064162,60.4590173 43.8693642,59.3854335 44.2616185,54.2817919 C44.2616185,54.2817919 43.5076301,56.2167052 35.3476301,57.7531214 C26.1416185,59.4854913 14.7873988,59.2832948 8.05300578,58.172948 C8.05300578,58.172948 9.4316185,59.3139884 16.5206358,59.7684971" id="Path" fill="#5382A1"></path>
        </g>
    </g>
</svg>