<svg width="68" height="68" xmlns="http://www.w3.org/2000/svg">

 <g>
  <title>background</title>
  <rect fill="none" id="canvas_background" height="70" width="70" y="-1" x="-1"/>
 </g>
 <g>
  <title>Layer 1</title>
  <rect stroke="null" x="5.25002" y="5.16668" id="svg_1" fill="#f7df1e" height="57.00001" width="57.00001"/>
  <path stroke="null" id="svg_2" d="m45.81975,49.9617c1.04499,1.70625 2.40456,2.9604 4.80911,2.9604c2.01999,0 3.31038,-1.00958 3.31038,-2.40456c0,-1.67166 -1.3258,-2.26374 -3.54919,-3.23627l-1.21875,-0.52291c-3.5179,-1.49873 -5.85493,-3.37626 -5.85493,-7.34543c0,-3.65624 2.78583,-6.4396 7.13956,-6.4396c3.09957,0 5.32791,1.07876 6.93369,3.90329l-3.79624,2.4375c-0.83583,-1.49873 -1.73754,-2.08916 -3.13745,-2.08916c-1.42791,0 -2.33291,0.90583 -2.33291,2.08916c0,1.4625 0.90583,2.05458 2.99746,2.9604l1.21875,0.52209c4.1421,1.77624 6.48078,3.58707 6.48078,7.65835c0,4.38914 -3.4479,6.7937 -8.07832,6.7937c-4.52748,0 -7.45248,-2.15751 -8.88369,-4.98534l3.96175,-2.30162zm-17.2214,0.42244c0.76583,1.35874 1.4625,2.50749 3.13745,2.50749c1.60167,0 2.61207,-0.62667 2.61207,-3.06334l0,-16.57662l4.87499,0l0,16.6425c0,5.04792 -2.95958,7.34543 -7.27955,7.34543c-3.90329,0 -6.16374,-2.01999 -7.31331,-4.45296l3.96834,-2.4025z"/>
 </g>
</svg>