<svg xmlns="http://www.w3.org/2000/svg" xmlns:xlink="http://www.w3.org/1999/xlink" width="68" height="68" version="1.1" style=""><rect id="backgroundrect" width="100%" height="100%" x="0" y="0" fill="none" stroke="none" class="" style=""/>

<g class="currentLayer" style=""><title>Layer 1</title><g id="surface1" class="">
<path style=" stroke:none;fill-rule:evenodd;fill:rgb(82.745098%,21.960784%,20%);fill-opacity:1;" d="M56.11985404457474,33.63324691023254 C56.11985404457474,46.309027910232544 45.93626004457474,56.58246591023254 33.37376004457474,56.58246591023254 C20.811260044574738,56.58246591023254 10.627666044574738,46.309027910232544 10.627666044574738,33.63324691023254 C10.627666044574738,20.957465910232543 20.811260044574738,10.684027910232544 33.37376004457474,10.684027910232544 C45.93626004457474,10.684027910232544 56.11985404457474,20.957465910232543 56.11985404457474,33.63324691023254 " id="svg_1"/>
<path style=" stroke:none;fill-rule:nonzero;fill:rgb(93.72549%,23.921569%,22.745098%);fill-opacity:1;" d="M11.553447044574737,39.316839910232545 C11.553447044574737,39.316839910232545 9.908916244574737,15.387152910232544 32.26438504457474,14.699652910232544 L30.705791044574738,12.137152910232544 L18.572979044574737,16.152777910232544 L15.108135044574738,20.086371910232543 L12.072979044574737,25.812933910232545 L10.342510044574738,32.480902910232544 L10.862041044574738,36.922308910232545 " id="svg_2"/>
<path style=" stroke:none;fill-rule:nonzero;fill:rgb(13.72549%,12.156863%,12.54902%);fill-opacity:1;" d="M17.795635044574738,17.976996910232543 C13.803447044574737,22.004339910232545 11.334697044574737,27.566839910232545 11.334697044574737,33.719183910232545 C11.334697044574737,39.86762191023254 13.803447044574737,45.43012191023254 17.795635044574738,49.45746591023254 C21.787823044574736,53.484808910232545 27.287823044574736,55.969183910232545 33.37376004457474,55.969183910232545 C39.45579104457474,55.969183910232545 44.95969704457474,53.484808910232545 48.95188504457474,49.45746591023254 C52.944073044574736,45.43012191023254 55.412823044574736,39.86762191023254 55.412823044574736,33.719183910232545 C55.412823044574736,27.566839910232545 52.944073044574736,22.004339910232545 48.95188504457474,17.976996910232543 C44.95969704457474,13.953558910232545 39.45579104457474,11.465277910232544 33.37376004457474,11.465277910232544 C27.287823044574736,11.465277910232544 21.787823044574736,13.953558910232545 17.795635044574738,17.976996910232543 zM16.783916044574738,50.434027910232544 C12.541729044574737,46.152777910232544 9.920635044574738,40.24262191023254 9.920635044574738,33.719183910232545 C9.920635044574738,27.195746910232543 12.541729044574737,21.281683910232545 16.783916044574738,17.004339910232545 C21.026104044574737,12.723089910232543 26.893291044574738,10.070746910232543 33.37376004457474,10.074652910232544 C39.850323044574736,10.070746910232543 45.72141604457474,12.723089910232543 49.96360404457474,17.004339910232545 C54.20188504457474,21.281683910232545 56.82688504457474,27.195746910232543 56.82688504457474,33.719183910232545 C56.82688504457474,40.24262191023254 54.20188504457474,46.152777910232544 49.96360404457474,50.434027910232544 C45.72141604457474,54.71137191023254 39.850323044574736,57.36371591023254 33.37376004457474,57.36371591023254 C26.893291044574738,57.36371591023254 21.026104044574737,54.71137191023254 16.783916044574738,50.434027910232544 " id="svg_3"/>
<path style=" stroke:none;fill-rule:evenodd;fill:rgb(94.117647%,83.921569%,71.764706%);fill-opacity:1;" d="M42.94797904457474,33.762152910232544 L39.48313504457474,34.27387191023254 L34.80344704457474,34.785589910232545 L31.768291044574738,34.871527910232544 L28.822979044574737,34.785589910232545 L26.569073044574736,34.10199691023254 L24.576885044574738,31.965277910232544 L23.018291044574738,27.605902910232544 L22.670635044574738,26.664496910232543 L20.592510044574738,25.980902910232544 L19.377666044574738,24.016058910232545 L18.510479044574737,21.195746910232543 L19.463604044574737,18.719183910232545 L21.717510044574738,17.949652910232544 L23.537823044574736,18.801215910232543 L24.405010044574738,20.684027910232544 L25.444073044574736,20.512152910232544 L25.791729044574737,20.086371910232543 L25.444073044574736,18.117621910232543 L25.358135044574738,15.641058910232545 L25.877666044574738,12.223089910232543 L25.858135044574738,10.269965910232544 L27.436260044574738,7.777777910232544 L30.20969704457474,5.812933910232545 L35.06126004457474,3.762152910232544 L40.43626004457474,4.527777910232544 L45.11594704457474,7.8637159102325445 L47.28001004457474,11.281683910232545 L48.66672904457474,13.762152910232544 L49.01438504457474,19.914496910232543 L47.975323044574736,25.215277910232544 L46.069073044574736,29.914496910232543 L44.24876004457474,32.391058910232545 " id="svg_4"/>
<path style=" stroke:none;fill-rule:evenodd;fill:rgb(20%,31.372549%,38.039216%);fill-opacity:1;" d="M40.00266604457474,48.547308910232545 L27.612041044574738,49.059027910232544 L27.612041044574738,51.109808910232545 L28.651104044574737,58.28949691023254 L28.131573044574736,58.887152910232544 L19.463604044574737,55.980902910232544 L18.858135044574738,54.95746591023254 L17.99094704457474,45.297308910232545 L15.998760044574738,39.484808910232545 L15.565166044574738,38.11762191023254 L22.498760044574738,33.418402910232544 L24.662823044574736,32.562933910232545 L26.569073044574736,34.871527910232544 L28.217510044574738,36.324652910232544 L30.123760044574738,36.922308910232545 L30.99094704457474,37.18012191023254 L32.03001004457474,41.621527910232544 L32.81126004457474,42.562933910232545 L34.80344704457474,41.879339910232545 L33.41672904457474,44.527777910232544 L40.95579104457474,48.035589910232545 L40.00266604457474,48.547308910232545 " id="svg_5"/>
<path style=" stroke:none;fill-rule:evenodd;fill:rgb(42.745098%,41.960784%,42.745098%);fill-opacity:1;" d="M19.463604044574737,18.719183910232545 L21.717510044574738,17.949652910232544 L23.537823044574736,18.801215910232543 L24.405010044574738,20.684027910232544 L25.444073044574736,20.512152910232544 L25.705791044574738,19.484808910232545 L25.186260044574738,17.519965910232543 L25.705791044574738,12.820746910232543 L25.27219704457474,10.254339910232545 L26.830791044574738,8.461371910232543 L30.20969704457474,5.812933910232545 L29.256573044574736,4.527777910232544 L24.49094704457474,6.836371910232544 L22.498760044574738,8.375433910232545 L21.369854044574737,10.769965910232543 L19.639385044574738,13.074652910232544 L19.119854044574737,15.812933910232545 L19.463604044574737,18.719183910232545 " id="svg_6"/>
<path style=" stroke:none;fill-rule:evenodd;fill:rgb(86.27451%,85.098039%,84.705882%);fill-opacity:1;" d="M23.018291044574738,10.684027910232544 C23.018291044574738,10.684027910232544 24.319073044574736,7.5199659102325445 29.518291044574738,5.980902910232544 C34.71751004457474,4.445746910232544 29.776104044574737,4.871527910232544 29.776104044574737,4.871527910232544 L24.143291044574738,7.008246910232544 L21.979229044574737,9.144965910232544 L21.026104044574737,10.855902910232544 L23.018291044574738,10.684027910232544 " id="svg_7"/>
<path style=" stroke:none;fill-rule:evenodd;fill:rgb(86.27451%,85.098039%,84.705882%);fill-opacity:1;" d="M20.416729044574737,18.117621910232543 C20.416729044574737,18.117621910232543 18.600323044574736,12.137152910232544 25.530010044574738,11.281683910232545 L25.27219704457474,10.254339910232545 L20.506573044574736,11.367621910232543 L19.119854044574737,15.812933910232545 L19.463604044574737,18.719183910232545 L20.416729044574737,18.117621910232543 " id="svg_8"/>
<path style=" stroke:none;fill-rule:evenodd;fill:rgb(96.862745%,89.411765%,80.392157%);fill-opacity:1;" d="M23.190166044574738,26.066839910232545 L24.326885044574738,24.984808910232545 C24.326885044574738,24.984808910232545 24.838604044574737,25.043402910232544 24.924541044574738,25.641058910232545 C25.010479044574737,26.238715910232543 25.27219704457474,31.625433910232545 28.998760044574738,34.531683910232545 C29.338604044574737,34.793402910232544 26.225323044574736,34.10199691023254 26.225323044574736,34.10199691023254 L23.451885044574738,29.828558910232545 " id="svg_9"/>
<path style=" stroke:none;fill-rule:evenodd;fill:rgb(96.862745%,89.411765%,80.392157%);fill-opacity:1;" d="M39.13547904457474,24.445746910232543 C39.13547904457474,24.445746910232543 39.33860404457474,21.851996910232543 40.04563504457474,22.051215910232543 C40.75266604457474,22.250433910232545 40.75266604457474,22.949652910232544 40.75266604457474,22.949652910232544 C40.75266604457474,22.949652910232544 39.03391604457474,24.047308910232545 39.13547904457474,24.445746910232543 " id="svg_10"/>
<path style=" stroke:none;fill-rule:nonzero;fill:rgb(96.862745%,89.411765%,80.392157%);fill-opacity:1;" d="M46.32688504457474,14.957465910232544 C46.32688504457474,14.957465910232544 44.90110404457474,15.254339910232543 44.76829104457474,16.496527910232544 C44.63547904457474,17.734808910232545 46.32688504457474,16.750433910232545 46.58860404457474,16.668402910232544 " id="svg_11"/>
<path style=" stroke:none;fill-rule:nonzero;fill:rgb(96.862745%,89.411765%,80.392157%);fill-opacity:1;" d="M35.84251004457474,15.043402910232544 C35.84251004457474,15.043402910232544 33.93626004457474,15.297308910232545 33.93626004457474,16.496527910232544 C33.93626004457474,17.691839910232545 36.10422904457474,17.605902910232544 36.70969704457474,17.094183910232545 " id="svg_12"/>
<path style=" stroke:none;fill-rule:evenodd;fill:rgb(96.862745%,89.411765%,80.392157%);fill-opacity:1;" d="M24.057354044574737,20.598089910232545 C24.057354044574737,20.598089910232545 20.764385044574738,18.633246910232543 20.416729044574737,20.512152910232544 C20.072979044574737,22.391058910232545 19.291729044574737,23.762152910232544 20.940166044574738,25.726996910232543 L19.811260044574738,25.383246910232543 L18.77219704457474,22.734808910232545 L18.424541044574738,20.172308910232545 L20.416729044574737,18.117621910232543 L22.670635044574738,18.289496910232543 L23.971416044574738,19.316839910232545 L24.057354044574737,20.598089910232545 " id="svg_13"/>
<path style=" stroke:none;fill-rule:evenodd;fill:rgb(96.862745%,89.411765%,80.392157%);fill-opacity:1;" d="M25.61594704457474,15.215277910232544 C25.61594704457474,15.215277910232544 27.092510044574738,7.691839910232543 34.54172904457474,6.2387159102325445 C40.67844704457474,5.043402910232544 43.90110404457474,6.496527910232544 45.11594704457474,7.8637159102325445 C45.11594704457474,7.8637159102325445 39.65501004457474,1.4535589102325441 34.45579104457474,3.418402910232544 C29.256573044574736,5.383246910232544 25.444073044574736,8.973089910232545 25.530010044574738,11.281683910232545 C25.67844704457474,15.211371910232543 25.61594704457474,15.215277910232544 25.61594704457474,15.215277910232544 " id="svg_14"/>
<path style=" stroke:none;fill-rule:evenodd;fill:rgb(96.862745%,89.411765%,80.392157%);fill-opacity:1;" d="M45.72141604457474,8.719183910232545 C45.72141604457474,8.719183910232545 43.20969704457474,8.633246910232543 43.11985404457474,10.855902910232544 C43.11985404457474,10.855902910232544 43.11985404457474,11.195746910232543 43.29563504457474,11.539496910232543 C43.29563504457474,11.539496910232543 45.287823044574736,9.316839910232543 46.50266604457474,10.512152910232544 " id="svg_15"/>
<path style=" stroke:none;fill-rule:evenodd;fill:rgb(96.862745%,89.411765%,80.392157%);fill-opacity:1;" d="M34.71751004457474,11.769965910232544 C34.71751004457474,11.769965910232544 34.28391604457474,8.359808910232545 31.33469704457474,10.340277910232544 C29.42844704457474,11.625433910232545 29.604229044574737,13.418402910232544 29.951885044574738,13.762152910232544 C30.295635044574738,14.101996910232543 30.201885044574738,14.789496910232543 30.467510044574738,14.316839910232543 C30.729229044574737,13.844183910232545 30.643291044574738,12.309027910232544 31.596416044574738,11.879339910232543 C32.54954104457474,11.453558910232545 34.11204104457474,10.976996910232543 34.71751004457474,11.769965910232544 " id="svg_16"/>
<path style=" stroke:none;fill-rule:evenodd;fill:rgb(28.627451%,44.705882%,54.509804%);fill-opacity:1;" d="M26.569073044574736,34.871527910232544 L18.424541044574738,38.46137191023254 C18.424541044574738,38.46137191023254 21.80344704457474,51.70746591023254 20.072979044574737,55.812933910232545 L18.858135044574738,55.38324691023254 L18.77219704457474,50.340277910232544 L16.518291044574738,40.76996591023254 L15.565166044574738,38.11762191023254 L24.057354044574737,32.47699691023254 L26.569073044574736,34.871527910232544 " id="svg_17"/>
<path style=" stroke:none;fill-rule:evenodd;fill:rgb(28.627451%,44.705882%,54.509804%);fill-opacity:1;" d="M27.408916044574738,42.199652910232544 L28.565166044574738,43.590277910232544 L28.565166044574738,48.719183910232545 L27.17844704457474,48.719183910232545 C27.17844704457474,48.719183910232545 27.002666044574738,45.129339910232545 27.002666044574738,44.699652910232544 C27.002666044574738,44.27387191023254 27.17844704457474,42.734808910232545 27.17844704457474,42.734808910232545 " id="svg_18"/>
<path style=" stroke:none;fill-rule:evenodd;fill:rgb(28.627451%,44.705882%,54.509804%);fill-opacity:1;" d="M27.436260044574738,49.48871591023254 L23.537823044574736,49.656683910232545 L24.662823044574736,50.42621591023254 L27.436260044574738,50.855902910232544 " id="svg_19"/>
<path style=" stroke:none;fill-rule:evenodd;fill:rgb(20%,31.372549%,38.039216%);fill-opacity:1;" d="M40.78001004457474,48.63324691023254 L43.98704104457474,48.547308910232545 L44.76829104457474,56.410589910232545 L41.475323044574736,56.83637191023254 L40.78001004457474,48.63324691023254 " id="svg_20"/>
<path style=" stroke:none;fill-rule:evenodd;fill:rgb(20%,31.372549%,38.039216%);fill-opacity:1;" d="M41.64719704457474,48.63324691023254 L46.50266604457474,48.375433910232545 C46.50266604457474,48.375433910232545 48.49485404457474,43.418402910232544 48.49485404457474,43.160589910232545 C48.49485404457474,42.906683910232545 50.225323044574736,35.980902910232544 50.225323044574736,35.980902910232544 L46.32688504457474,31.965277910232544 L45.54563504457474,31.281683910232545 L43.46751004457474,33.33246591023254 L43.46751004457474,41.281683910232545 L41.64719704457474,48.63324691023254 " id="svg_21"/>
<path style=" stroke:none;fill-rule:evenodd;fill:rgb(28.627451%,44.705882%,54.509804%);fill-opacity:1;" d="M43.81516604457474,48.035589910232545 L40.78001004457474,48.63324691023254 L41.21360404457474,51.02387191023254 C42.34251004457474,51.53949691023254 44.24876004457474,50.172308910232545 44.24876004457474,50.172308910232545 " id="svg_22"/>
<path style=" stroke:none;fill-rule:evenodd;fill:rgb(28.627451%,44.705882%,54.509804%);fill-opacity:1;" d="M43.90110404457474,33.078558910232545 L49.96751004457474,37.51996591023254 L50.13938504457474,35.469183910232545 L45.54563504457474,31.281683910232545 L43.90110404457474,33.078558910232545 " id="svg_23"/>
<path style=" stroke:none;fill-rule:evenodd;fill:rgb(100%,100%,100%);fill-opacity:1;" d="M30.444073044574736,65.46918391023254 L28.651104044574737,58.28949691023254 L27.756573044574736,52.99262191023254 L27.612041044574738,49.059027910232544 L35.72922904457474,48.63324691023254 L40.78001004457474,48.63324691023254 L40.32297904457474,57.605902910232544 L41.10422904457474,64.53168391023254 L41.01438504457474,65.81293391023254 L34.43235404457474,66.32465291023254 L30.444073044574736,65.46918391023254 " id="svg_24"/>
<path style=" stroke:none;fill-rule:evenodd;fill:rgb(86.27451%,85.098039%,84.705882%);fill-opacity:1;" d="M39.65501004457474,48.547308910232545 C39.65501004457474,48.547308910232545 39.22141604457474,57.434027910232544 40.52219704457474,63.762152910232544 C40.52219704457474,63.762152910232544 37.92063504457474,65.38324691023254 34.10813504457474,65.81293391023254 L41.38938504457474,65.55512191023254 L42.256573044574736,65.04340291023254 L41.21360404457474,51.02387191023254 L40.95579104457474,48.035589910232545 " id="svg_25"/>
<path style=" stroke:none;fill-rule:evenodd;fill:rgb(100%,100%,100%);fill-opacity:1;" d="M44.91672904457474,55.72699691023254 L48.29563504457474,54.785589910232545 L54.70579104457474,54.44574691023254 L55.65891604457474,51.53949691023254 L53.92844704457474,46.496527910232544 L51.93235404457474,46.23871591023254 L49.162823044574736,47.094183910232545 L46.50266604457474,48.375433910232545 L45.08860404457474,48.121527910232544 L43.98704104457474,48.547308910232545 " id="svg_26"/>
<path style=" stroke:none;fill-rule:evenodd;fill:rgb(86.27451%,85.098039%,84.705882%);fill-opacity:1;" d="M44.85422904457474,54.016058910232545 C44.85422904457474,54.016058910232545 47.10813504457474,52.99262191023254 47.45188504457474,53.078558910232545 L46.50266604457474,48.375433910232545 L47.62766604457474,47.949652910232544 C47.62766604457474,47.949652910232544 48.40891604457474,52.391058910232545 48.40891604457474,52.906683910232545 C48.40891604457474,52.906683910232545 53.26047904457474,53.160589910232545 53.694073044574736,53.160589910232545 C53.694073044574736,53.160589910232545 54.73313504457474,51.19574691023254 54.47141604457474,49.14496591023254 L55.42454104457474,51.879339910232545 L55.51438504457474,53.418402910232544 L54.12766604457474,55.469183910232545 L52.56516604457474,55.812933910232545 L49.96751004457474,55.72699691023254 L49.100323044574736,54.61371591023254 L46.069073044574736,55.043402910232544 L45.11594704457474,55.38324691023254 " id="svg_27"/>
<path style=" stroke:none;fill-rule:nonzero;fill:rgb(100%,100%,100%);fill-opacity:1;" d="M41.44797904457474,47.949652910232544 L39.54172904457474,43.16449691023254 L37.54954104457474,40.344183910232545 C37.54954104457474,40.344183910232545 37.98313504457474,39.14496591023254 38.58860404457474,39.14496591023254 C39.19797904457474,39.14496591023254 40.58079104457474,39.14496591023254 40.58079104457474,39.14496591023254 L42.48704104457474,39.828558910232545 L42.31516604457474,42.99262191023254 L41.44797904457474,47.949652910232544 " id="svg_28"/>
<path style=" stroke:none;fill-rule:evenodd;fill:rgb(86.27451%,85.098039%,84.705882%);fill-opacity:1;" d="M41.82297904457474,46.324652910232544 C41.82297904457474,46.324652910232544 39.39329104457474,41.70746591023254 39.39329104457474,41.02387191023254 C39.39329104457474,41.02387191023254 39.82688504457474,40.000433910232545 40.43626004457474,40.254339910232545 C41.04172904457474,40.512152910232544 42.34251004457474,41.19574691023254 42.34251004457474,41.19574691023254 L42.34251004457474,39.57074691023254 L39.39329104457474,38.973089910232545 L37.40110404457474,39.230902910232544 L40.78001004457474,47.094183910232545 L41.475323044574736,47.18012191023254 " id="svg_29"/>
<path style=" stroke:none;fill-rule:nonzero;fill:rgb(100%,100%,100%);fill-opacity:1;" d="M31.225323044574736,35.043402910232544 L28.822979044574737,34.785589910232545 L26.569073044574736,34.10199691023254 L26.569073044574736,34.871527910232544 L27.670635044574738,36.07074691023254 L31.139385044574738,37.605902910232544 " id="svg_30"/>
<path style=" stroke:none;fill-rule:evenodd;fill:rgb(86.27451%,85.098039%,84.705882%);fill-opacity:1;" d="M27.350323044574736,35.30121591023254 C27.350323044574736,35.30121591023254 30.037823044574736,36.410589910232545 30.905010044574738,36.152777910232544 L30.99094704457474,37.18012191023254 L28.565166044574738,36.668402910232544 L27.092510044574738,35.641058910232545 L27.350323044574736,35.30121591023254 " id="svg_31"/>
<path style=" stroke:none;fill-rule:evenodd;fill:rgb(82.745098%,21.960784%,20%);fill-opacity:1;" d="M44.90501004457474,39.437933910232545 C43.43626004457474,39.39496591023254 42.10813504457474,39.223089910232545 40.944073044574736,38.89887191023254 C41.02219704457474,38.42621591023254 40.87376004457474,37.965277910232544 40.99485404457474,37.629339910232545 C41.319073044574736,37.39887191023254 41.86204104457474,37.402777910232544 42.350323044574736,37.348089910232545 C41.92844704457474,37.141058910232545 41.33079104457474,37.059027910232544 40.84251004457474,37.18012191023254 C40.83079104457474,36.85199691023254 40.68235404457474,36.64887191023254 40.59251004457474,36.39496591023254 C41.42063504457474,36.10199691023254 43.37376004457474,34.19574691023254 44.47141604457474,34.828558910232545 C44.99094704457474,35.129339910232545 45.21360404457474,36.844183910232545 45.256573044574736,37.68012191023254 C45.287823044574736,38.371527910232544 45.19016604457474,39.07074691023254 44.90501004457474,39.437933910232545 " id="svg_32"/>
<path style="fill:none;stroke-width:2;stroke-linecap:butt;stroke-linejoin:miter;stroke:rgb(82.745098%,21.960784%,20%);stroke-opacity:1;stroke-miterlimit:4;" d="M44.90504326417074,39.43796140392254 C43.43629186417074,39.39499272894254 42.10816574201874,39.223118029022544 40.94410201076274,38.89889963529254 C41.02222710735474,38.42624369769254 40.873789631794736,37.965306722732535 40.99488337553874,37.62936962277254 C41.31910257838674,37.39890113529254 41.86207163576273,37.40280728523254 42.35035348946274,37.34811990402254 C41.92847817583074,37.14108882900254 41.330821134910735,37.05905762898254 40.842539541166744,37.180151354042536 C40.83082072468674,36.85202655396254 40.68238298917074,36.64890188529254 40.59253933605474,36.39499572894254 C41.42066504798274,36.102027303962544 43.373791942870746,34.19577921021254 44.47144913405874,34.82859114150254 C44.99098107838674,35.12937212277254 45.213637551682744,36.84421399767254 45.256606198834746,37.68015085404254 C45.28785628946274,38.37155631648254 45.19019991872274,39.07077433521254 44.90504326417074,39.43796140392254 zM44.90504326417074,39.43796140392254 " id="svg_33"/>
<path style=" stroke:none;fill-rule:evenodd;fill:rgb(82.745098%,21.960784%,20%);fill-opacity:1;" d="M37.87376004457474,37.066839910232545 C37.86985404457474,37.17621591023254 37.86594704457474,37.285589910232545 37.86204104457474,37.39887191023254 C37.40110404457474,37.69574691023254 36.662823044574736,37.691839910232545 36.15891604457474,37.941839910232545 C36.90110404457474,37.973089910232545 37.48704104457474,38.14887191023254 37.99094704457474,38.39887191023254 C37.97922904457474,38.67621591023254 37.96751004457474,38.949652910232544 37.95969704457474,39.22699691023254 C37.11594704457474,39.793402910232544 36.34641604457474,40.641058910232545 35.35813504457474,41.172308910232545 C34.88938504457474,41.42621591023254 33.24485404457474,42.074652910232544 32.74485404457474,41.96137191023254 C32.46360404457474,41.89496591023254 32.44016604457474,41.55121591023254 32.32688504457474,41.223089910232545 C32.08469704457474,40.527777910232544 31.533916044574738,39.418402910232544 31.487041044574738,38.371527910232544 C31.424541044574738,37.047308910232545 31.287823044574736,34.824652910232544 32.73704104457474,35.098089910232545 C33.90501004457474,35.316839910232545 35.26047904457474,35.848089910232545 36.16672904457474,36.33637191023254 C36.71751004457474,36.63324691023254 37.037823044574736,37.004339910232545 37.87376004457474,37.066839910232545 " id="svg_34"/>
<path style="fill:none;stroke-width:2;stroke-linecap:butt;stroke-linejoin:miter;stroke:rgb(82.745098%,21.960784%,20%);stroke-opacity:1;stroke-miterlimit:4;" d="M37.87378665053874,37.066870185272535 C37.86988055168274,37.17624494769254 37.86597419287074,37.28561996652254 37.86206783405875,37.39890113529254 C37.40112997213074,37.695775710212544 36.66284791331874,37.691869560272536 36.15894140423874,37.94186931027254 C36.90112956190674,37.97311927902254 37.487067526390746,38.14890038529254 37.99097429542674,38.398900135292536 C37.97925547894674,38.67624344769254 37.96753666246674,38.94968061015254 37.95972420479874,39.22702417896254 C37.115973577534746,39.79342976640254 36.34644142809474,40.641085329002536 35.35815916417074,41.17233479775254 C34.88940884457474,41.42624069769254 33.24487597724274,42.07467748515254 32.74487556701874,41.96139657279254 C32.463625271278744,41.89499022894255 32.44018763831874,41.55124057269254 32.326906352242744,41.22311602902254 C32.08471860479874,40.52780416023254 31.53393682979874,39.41843014140254 31.487061823834736,38.37155631648254 C31.42456190253474,37.047338922752544 31.28784298349874,34.824684735152545 32.73706310935074,35.09812215402254 C33.90503293946274,35.316871935272545 35.26050305338674,35.848121404022535 36.16675386190674,36.33640219779254 C36.71753563690673,36.63327677271254 37.03784848094274,37.00437024777254 37.87378665053874,37.066870185272535 zM37.87378665053874,37.066870185272535 " id="svg_35"/>
<path style=" stroke:none;fill-rule:evenodd;fill:rgb(82.745098%,21.960784%,20%);fill-opacity:1;" d="M38.70969704457474,38.64496591023254 C38.58079104457474,37.92621591023254 38.43235404457474,37.719183910232545 38.49094704457474,37.090277910232544 C40.444073044574736,35.80512191023254 40.80735404457474,39.293402910232544 38.70969704457474,38.64496591023254 " id="svg_36"/>
<path style="fill:none;stroke-width:2;stroke-linecap:butt;stroke-linejoin:miter;stroke:rgb(82.745098%,21.960784%,20%);stroke-opacity:1;stroke-miterlimit:4;" d="M38.709725080090735,38.64499347894254 C38.580818618722745,37.92624419769254 38.43238088320674,37.71921312267254 38.49097470565074,37.09030759773254 C40.44410160053874,35.80515272904255 40.80738335168274,39.29343026640254 38.709725080090735,38.64499347894254 zM38.709725080090735,38.64499347894254 " id="svg_37"/>
<path style=" stroke:none;fill-rule:evenodd;fill:rgb(93.72549%,23.921569%,22.745098%);fill-opacity:1;" d="M41.53391604457474,39.230902910232544 C41.53391604457474,39.230902910232544 40.92844704457474,38.375433910232545 41.36204104457474,38.121527910232544 C41.79563504457474,37.86371591023254 42.22922904457474,38.121527910232544 42.48704104457474,37.691839910232545 C42.74876004457474,37.266058910232545 42.48704104457474,37.00824691023254 42.57688504457474,36.496527910232544 C42.662823044574736,35.984808910232545 43.09641604457474,35.89887191023254 43.53001004457474,35.812933910232545 C43.96360404457474,35.72699691023254 45.17454104457474,35.55512191023254 45.350323044574736,35.984808910232545 L44.82688504457474,34.44574691023254 L43.787823044574736,34.10199691023254 L40.49485404457474,35.984808910232545 L40.32297904457474,36.922308910232545 L40.32297904457474,38.80512191023254 " id="svg_38"/>
<path style=" stroke:none;fill-rule:evenodd;fill:rgb(93.72549%,23.921569%,22.745098%);fill-opacity:1;" d="M32.43626004457474,42.05121591023254 C32.33469704457474,40.719183910232545 32.22141604457474,39.387152910232544 32.100323044574736,38.05512191023254 C31.916729044574737,36.062933910232545 32.58469704457474,36.410589910232545 34.33469704457474,36.410589910232545 C34.600323044574736,36.410589910232545 35.97922904457474,36.723089910232545 36.07688504457474,36.922308910232545 C36.54954104457474,37.875433910232545 35.287823044574736,37.66449691023254 36.61985404457474,38.38324691023254 C37.74876004457474,38.98871591023254 39.73704104457474,38.016058910232545 39.28391604457474,36.668402910232544 C39.02610404457474,36.36762191023254 37.95579104457474,36.574652910232544 37.569073044574736,36.375433910232545 C36.89329104457474,36.031683910232545 36.21751004457474,35.684027910232544 35.54172904457474,35.340277910232544 C34.67844704457474,34.89887191023254 32.68626004457474,34.254339910232545 31.768291044574738,34.871527910232544 C29.444073044574736,36.434027910232544 31.916729044574737,40.33246591023254 32.74485404457474,41.96137191023254 " id="svg_39"/>
<path style=" stroke:none;fill-rule:evenodd;fill:rgb(13.72549%,12.156863%,12.54902%);fill-opacity:1;" d="M34.71751004457474,11.769965910232544 C32.35422904457474,11.226996910232543 31.182354044574737,12.742621910232543 30.467510044574738,14.316839910232543 C29.826885044574738,14.164496910232543 30.080791044574738,13.309027910232544 30.24094704457474,12.871527910232544 C30.666729044574737,11.723089910232543 32.36985404457474,10.199652910232544 33.76047904457474,10.406683910232545 C34.36204104457474,10.492621910232543 35.17063504457474,11.035589910232543 34.71751004457474,11.769965910232544 " id="svg_40"/>
<path style=" stroke:none;fill-rule:evenodd;fill:rgb(13.72549%,12.156863%,12.54902%);fill-opacity:1;" d="M46.225323044574736,14.422308910232545 C46.26047904457474,14.422308910232545 46.29954104457474,14.426215910232544 46.33860404457474,14.426215910232544 C46.86985404457474,15.519965910232544 47.33079104457474,16.680121910232543 48.006573044574736,17.644965910232543 C47.55344704457474,18.680121910232543 44.58860404457474,19.598089910232545 44.63547904457474,17.734808910232545 C45.27610404457474,17.461371910232543 46.38547904457474,17.680121910232543 46.95188504457474,17.328558910232545 C46.62376004457474,16.437933910232545 46.15110404457474,15.680121910232543 46.225323044574736,14.422308910232545 " id="svg_41"/>
<path style=" stroke:none;fill-rule:evenodd;fill:rgb(13.72549%,12.156863%,12.54902%);fill-opacity:1;" d="M35.92844704457474,14.449652910232544 C36.43235404457474,15.367621910232543 36.59641604457474,16.328558910232545 37.319073044574736,17.019965910232543 C37.64329104457474,17.332465910232543 38.27219704457474,17.711371910232543 37.95969704457474,18.578558910232545 C37.88547904457474,18.781683910232545 37.35422904457474,19.238715910232543 37.04563504457474,19.328558910232545 C35.92063504457474,19.656683910232545 33.29563504457474,19.394965910232543 34.18626004457474,18.012152910232544 C35.11594704457474,18.055121910232543 36.36594704457474,18.605902910232544 37.06126004457474,17.941839910232545 C36.53001004457474,17.098089910232545 35.57688504457474,15.434027910232544 35.92844704457474,14.449652910232544 " id="svg_42"/>
<path style=" stroke:none;fill-rule:evenodd;fill:rgb(13.72549%,12.156863%,12.54902%);fill-opacity:1;" d="M45.80344704457474,23.758246910232543 C44.10813504457474,24.832465910232543 42.21751004457474,25.996527910232544 39.444073044574736,25.726996910232543 C38.850323044574736,25.219183910232545 38.62376004457474,24.086371910232543 39.19797904457474,23.340277910232544 C39.49876004457474,23.848089910232545 39.31126004457474,24.781683910232545 40.14719704457474,24.922308910232545 C41.72141604457474,25.187933910232545 43.55735404457474,23.973089910232545 44.69016604457474,23.547308910232545 C45.38938504457474,22.379339910232545 44.62766604457474,21.949652910232544 43.99485404457474,21.199652910232544 C42.69797904457474,19.656683910232545 40.95969704457474,17.746527910232544 41.02219704457474,15.441839910232543 C41.54954104457474,15.066839910232543 41.59251004457474,16.012152910232544 41.66672904457474,16.184027910232544 C42.34641604457474,17.746527910232544 44.04954104457474,19.746527910232544 45.29172904457474,21.082465910232543 C45.59641604457474,21.410589910232545 46.100323044574736,21.726996910232543 46.15501004457474,21.945746910232543 C46.31516604457474,22.578558910232545 45.73313504457474,23.336371910232543 45.80344704457474,23.758246910232543 " id="svg_43"/>
<path style=" stroke:none;fill-rule:evenodd;fill:rgb(13.72549%,12.156863%,12.54902%);fill-opacity:1;" d="M23.463604044574737,22.625433910232545 C22.932354044574737,22.328558910232545 22.807354044574737,21.012152910232544 22.182354044574737,20.973089910232545 C21.291729044574737,20.918402910232544 21.455791044574738,22.680121910232543 21.45969704457474,23.711371910232543 C20.846416044574738,23.164496910232543 20.737041044574738,21.473089910232545 21.186260044574738,20.601996910232543 C20.674541044574738,20.355902910232544 20.444073044574736,20.879339910232545 20.158916044574738,21.062933910232545 C20.526104044574737,18.437933910232545 24.049541044574738,19.844183910232545 23.463604044574737,22.625433910232545 " id="svg_44"/>
<path style=" stroke:none;fill-rule:evenodd;fill:rgb(13.72549%,12.156863%,12.54902%);fill-opacity:1;" d="M46.881573044574736,24.848089910232545 C46.09251004457474,26.328558910232545 44.975323044574736,27.961371910232543 42.662823044574736,28.008246910232543 C42.61594704457474,27.531683910232545 42.58079104457474,26.801215910232543 42.66672904457474,26.516058910232545 C44.43235404457474,26.348089910232545 45.52610404457474,25.457465910232543 46.881573044574736,24.848089910232545 " id="svg_45"/>
<path style=" stroke:none;fill-rule:evenodd;fill:rgb(13.72549%,12.156863%,12.54902%);fill-opacity:1;" d="M35.79172904457474,25.809027910232544 C37.26829104457474,26.574652910232544 39.98313504457474,26.656683910232545 41.98704104457474,26.598089910232545 C42.09641604457474,27.031683910232545 42.09251004457474,27.566839910232545 42.09641604457474,28.098089910232545 C39.51829104457474,28.223089910232545 36.46751004457474,27.594183910232545 35.79172904457474,25.809027910232544 " id="svg_46"/>
<path style=" stroke:none;fill-rule:evenodd;fill:rgb(13.72549%,12.156863%,12.54902%);fill-opacity:1;" d="M35.51438504457474,27.238715910232543 C36.53391604457474,29.766058910232545 40.04172904457474,29.473089910232545 42.99876004457474,29.402777910232544 C42.86985404457474,29.730902910232544 42.58860404457474,30.121527910232544 42.23704104457474,30.262152910232544 C41.287823044574736,30.641058910232545 38.67454104457474,30.930121910232543 37.35813504457474,30.238715910232543 C36.52219704457474,29.801215910232543 35.98704104457474,28.812933910232545 35.53001004457474,28.234808910232545 C35.30735404457474,27.953558910232545 34.20969704457474,27.238715910232543 35.51438504457474,27.238715910232543 " id="svg_47"/>
<path style=" stroke:none;fill-rule:evenodd;fill:rgb(50.588235%,69.019608%,76.862745%);fill-opacity:1;" d="M45.67844704457474,41.18012191023254 C44.48313504457474,43.203558910232545 43.33469704457474,45.281683910232545 41.912823044574736,47.066839910232545 C42.51047904457474,45.340277910232544 42.76438504457474,42.449652910232544 42.85422904457474,40.24262191023254 C44.100323044574736,39.668402910232544 45.16672904457474,40.371527910232544 45.67844704457474,41.18012191023254 " id="svg_48"/>
<path style=" stroke:none;fill-rule:evenodd;fill:rgb(13.72549%,12.156863%,12.54902%);fill-opacity:1;" d="M52.12376004457474,48.453558910232545 C50.78391604457474,48.719183910232545 49.84251004457474,50.004339910232545 48.53391604457474,49.922308910232545 C49.25266604457474,48.922308910232545 50.51047904457474,48.500433910232545 52.12376004457474,48.453558910232545 " id="svg_49"/>
<path style=" stroke:none;fill-rule:evenodd;fill:rgb(13.72549%,12.156863%,12.54902%);fill-opacity:1;" d="M52.71751004457474,50.52387191023254 C51.62376004457474,50.637152910232544 50.33860404457474,50.812933910232545 49.22922904457474,50.723089910232545 C49.756573044574736,49.934027910232544 51.77610404457474,50.203558910232545 52.71751004457474,50.52387191023254 " id="svg_50"/>
<path style=" stroke:none;fill-rule:evenodd;fill:rgb(13.72549%,12.156863%,12.54902%);fill-opacity:1;" d="M53.09641604457474,52.309027910232544 C51.86594704457474,52.33637191023254 50.33860404457474,52.312933910232545 49.17063504457474,52.215277910232544 C49.86204104457474,51.484808910232545 52.29954104457474,51.941839910232545 53.09641604457474,52.309027910232544 " id="svg_51"/>
<path style=" stroke:none;fill-rule:evenodd;fill:rgb(86.27451%,85.098039%,84.705882%);fill-opacity:1;" d="M43.36594704457474,57.19574691023254 C43.54563504457474,58.715277910232544 44.15501004457474,60.25824691023254 44.07688504457474,61.92621591023254 C43.40110404457474,62.14887191023254 43.01047904457474,62.348089910232545 42.100323044574736,62.348089910232545 C42.03391604457474,60.93012191023254 41.84251004457474,58.766058910232545 41.90110404457474,57.41449691023254 C42.34641604457474,57.44574691023254 43.006573044574736,57.098089910232545 43.36594704457474,57.19574691023254 " id="svg_52"/>
<path style=" stroke:none;fill-rule:evenodd;fill:rgb(94.117647%,83.921569%,71.764706%);fill-opacity:1;" d="M41.38547904457474,34.766058910232545 C40.76829104457474,35.160589910232545 40.24485404457474,35.656683910232545 39.65110404457474,36.08246591023254 C38.33860404457474,36.14496591023254 37.61985404457474,35.99262191023254 36.65501004457474,35.250433910232545 C36.67063504457474,35.187933910232545 36.76829104457474,35.215277910232544 36.77219704457474,35.141058910232545 C38.17844704457474,35.762152910232544 39.96751004457474,34.891058910232545 41.38547904457474,34.766058910232545 " id="svg_53"/>
<path style=" stroke:none;fill-rule:evenodd;fill:rgb(50.588235%,69.019608%,76.862745%);fill-opacity:1;" d="M34.00266604457474,44.219183910232545 C34.38938504457474,42.57074691023254 35.90501004457474,41.715277910232544 37.28001004457474,40.80512191023254 C38.69797904457474,42.58246591023254 39.56126004457474,44.86762191023254 40.51047904457474,47.07074691023254 C38.26829104457474,46.402777910232544 35.97141604457474,45.32074691023254 34.00266604457474,44.219183910232545 " id="svg_54"/>
<path style=" stroke:none;fill-rule:evenodd;fill:rgb(13.72549%,12.156863%,12.54902%);fill-opacity:1;" d="M41.90110404457474,57.41449691023254 C41.84251004457474,58.766058910232545 42.03391604457474,60.93012191023254 42.100323044574736,62.348089910232545 C43.01047904457474,62.348089910232545 43.40110404457474,62.14887191023254 44.07688504457474,61.92621591023254 C44.15501004457474,60.25824691023254 43.54563504457474,58.715277910232544 43.36594704457474,57.19574691023254 C43.006573044574736,57.098089910232545 42.34641604457474,57.44574691023254 41.90110404457474,57.41449691023254 zM27.729229044574737,49.734808910232545 C28.330791044574738,55.17621591023254 29.197979044574737,59.750433910232545 30.791729044574737,64.57074691023254 C34.33079104457474,65.62933991023255 38.59641604457474,65.72308991023255 41.725323044574736,64.76605891023254 C41.15110404457474,62.047308910232545 41.40110404457474,58.734808910232545 41.06516604457474,55.83246591023254 C40.81126004457474,53.652777910232544 40.94016604457474,51.45746591023254 40.59251004457474,49.230902910232544 C36.80344704457474,48.453558910232545 31.447979044574737,49.05121591023254 27.729229044574737,49.734808910232545 zM41.49094704457474,49.266058910232545 C41.45969704457474,51.60199691023254 41.59641604457474,53.906683910232545 41.77610404457474,56.246527910232544 C42.68626004457474,56.11371591023254 43.30344704457474,56.02387191023254 44.15110404457474,55.840277910232544 C43.87376004457474,53.58637191023254 43.90891604457474,51.05121591023254 43.350323044574736,49.059027910232544 C42.70579104457474,49.066839910232545 42.13547904457474,49.05121591023254 41.49094704457474,49.266058910232545 zM46.10422904457474,48.887152910232544 C45.67454104457474,48.78949691023254 45.17063504457474,48.88324691023254 44.76047904457474,48.891058910232545 C44.95188504457474,50.797308910232545 45.42454104457474,52.89887191023254 45.58860404457474,54.89887191023254 C46.23704104457474,54.918402910232544 46.58469704457474,54.61762191023254 47.11985404457474,54.516058910232545 C47.14719704457474,52.762152910232544 46.96360404457474,50.344183910232545 46.10422904457474,48.887152910232544 zM53.09641604457474,55.187933910232545 C54.44797904457474,54.86371591023254 55.29954104457474,53.22699691023254 54.92063504457474,51.55121591023254 C54.66672904457474,50.422308910232545 54.21360404457474,48.297308910232545 53.72922904457474,47.574652910232544 C53.37376004457474,47.03949691023254 52.40110404457474,46.340277910232544 51.62766604457474,46.83246591023254 C50.36985404457474,47.625433910232545 48.14719704457474,47.859808910232545 47.22922904457474,48.82074691023254 C47.69016604457474,50.33246591023254 47.83469704457474,52.410589910232545 48.02219704457474,54.328558910232545 C49.59641604457474,54.42621591023254 51.53391604457474,53.902777910232544 52.84251004457474,54.45746591023254 C51.92844704457474,54.750433910232545 50.74485404457474,54.750433910232545 49.95188504457474,55.17621591023254 C50.600323044574736,55.484808910232545 52.10813504457474,55.422308910232545 53.09641604457474,55.187933910232545 zM40.51047904457474,47.07074691023254 C39.56126004457474,44.86762191023254 38.69797904457474,42.58246591023254 37.28001004457474,40.80512191023254 C35.90501004457474,41.715277910232544 34.38938504457474,42.57074691023254 34.00266604457474,44.219183910232545 C35.97141604457474,45.32074691023254 38.26829104457474,46.402777910232544 40.51047904457474,47.07074691023254 zM42.85422904457474,40.24262191023254 C42.76438504457474,42.449652910232544 42.51047904457474,45.340277910232544 41.912823044574736,47.066839910232545 C43.33469704457474,45.281683910232545 44.48313504457474,43.203558910232545 45.67844704457474,41.18012191023254 C45.16672904457474,40.371527910232544 44.100323044574736,39.668402910232544 42.85422904457474,40.24262191023254 zM40.19797904457474,39.312933910232545 C39.65891604457474,39.254339910232545 39.20188504457474,39.922308910232545 38.50266604457474,39.63324691023254 C38.34251004457474,39.809027910232544 38.19797904457474,40.000433910232545 38.03391604457474,40.168402910232544 C39.58079104457474,42.00824691023254 40.28391604457474,44.61371591023254 41.475323044574736,46.77387191023254 C42.11594704457474,44.699652910232544 42.04563504457474,42.42621591023254 42.18626004457474,40.16449691023254 C41.30344704457474,40.219183910232545 40.81516604457474,39.375433910232545 40.19797904457474,39.312933910232545 zM38.49094704457474,37.090277910232544 C38.43235404457474,37.719183910232545 38.58079104457474,37.92621591023254 38.70969704457474,38.64496591023254 C40.80735404457474,39.293402910232544 40.444073044574736,35.80512191023254 38.49094704457474,37.090277910232544 zM36.16672904457474,36.33637191023254 C35.26047904457474,35.848089910232545 33.90501004457474,35.316839910232545 32.73704104457474,35.098089910232545 C31.287823044574736,34.824652910232544 31.424541044574738,37.047308910232545 31.487041044574738,38.371527910232544 C31.533916044574738,39.418402910232544 32.08469704457474,40.527777910232544 32.32688504457474,41.223089910232545 C32.44016604457474,41.55121591023254 32.46360404457474,41.89496591023254 32.74485404457474,41.96137191023254 C33.24485404457474,42.074652910232544 34.88938504457474,41.42621591023254 35.35813504457474,41.172308910232545 C36.34641604457474,40.641058910232545 37.11594704457474,39.793402910232544 37.95969704457474,39.22699691023254 C37.96751004457474,38.949652910232544 37.97922904457474,38.67621591023254 37.99094704457474,38.39887191023254 C37.48704104457474,38.14887191023254 36.90110404457474,37.973089910232545 36.15891604457474,37.941839910232545 C36.662823044574736,37.691839910232545 37.40110404457474,37.69574691023254 37.86204104457474,37.39887191023254 C37.86594704457474,37.285589910232545 37.86985404457474,37.17621591023254 37.87376004457474,37.066839910232545 C37.037823044574736,37.004339910232545 36.71751004457474,36.63324691023254 36.16672904457474,36.33637191023254 zM27.530010044574738,34.78949691023254 C26.780010044574738,35.53949691023254 29.635479044574737,36.562933910232545 30.545635044574738,36.621527910232544 C30.537823044574736,36.14496591023254 30.819073044574736,35.69574691023254 30.760479044574737,35.355902910232544 C29.682354044574737,35.168402910232544 28.264385044574738,35.293402910232544 27.530010044574738,34.78949691023254 zM36.77219704457474,35.141058910232545 C36.76829104457474,35.215277910232544 36.67063504457474,35.187933910232545 36.65501004457474,35.250433910232545 C37.61985404457474,35.99262191023254 38.33860404457474,36.14496591023254 39.65110404457474,36.08246591023254 C40.24485404457474,35.656683910232545 40.76829104457474,35.160589910232545 41.38547904457474,34.766058910232545 C39.96751004457474,34.891058910232545 38.17844704457474,35.762152910232544 36.77219704457474,35.141058910232545 zM45.256573044574736,37.68012191023254 C45.21360404457474,36.844183910232545 44.99094704457474,35.129339910232545 44.47141604457474,34.828558910232545 C43.37376004457474,34.19574691023254 41.42063504457474,36.10199691023254 40.59251004457474,36.39496591023254 C40.68235404457474,36.64887191023254 40.83079104457474,36.85199691023254 40.84251004457474,37.18012191023254 C41.33079104457474,37.059027910232544 41.92844704457474,37.141058910232545 42.350323044574736,37.348089910232545 C41.86204104457474,37.402777910232544 41.319073044574736,37.39887191023254 40.99485404457474,37.629339910232545 C40.87376004457474,37.965277910232544 41.02219704457474,38.42621591023254 40.944073044574736,38.89887191023254 C42.10813504457474,39.223089910232545 43.43626004457474,39.39496591023254 44.90501004457474,39.437933910232545 C45.19016604457474,39.07074691023254 45.287823044574736,38.371527910232544 45.256573044574736,37.68012191023254 zM26.268291044574738,35.516058910232545 C26.033916044574738,35.35199691023254 24.440166044574738,33.30512191023254 24.221416044574738,33.391058910232545 C21.33469704457474,34.512152910232544 18.639385044574738,36.449652910232544 16.229229044574737,38.285589910232545 C18.526104044574737,43.14887191023254 19.455791044574738,49.105902910232544 19.619854044574737,54.848089910232545 C22.252666044574738,56.062933910232545 24.561260044574738,57.812933910232545 28.135479044574737,57.996527910232544 C27.721416044574738,55.109808910232545 27.342510044574738,52.53949691023254 27.108135044574738,49.82074691023254 C26.20969704457474,49.449652910232544 24.924541044574738,49.840277910232544 24.08469704457474,49.70746591023254 C24.076885044574738,48.70746591023254 25.36594704457474,49.26996591023254 25.475323044574736,48.598089910232545 C25.55344704457474,48.090277910232544 24.764385044574738,48.05121591023254 25.02219704457474,47.254339910232545 C25.67844704457474,47.48871591023254 26.02219704457474,48.00824691023254 26.721416044574738,48.203558910232545 C27.362041044574738,46.824652910232544 26.713604044574737,44.379339910232545 26.807354044574737,43.22699691023254 C26.822979044574737,43.00824691023254 26.916729044574737,42.027777910232544 27.408916044574738,42.199652910232544 C27.842510044574738,42.35199691023254 27.381573044574736,44.812933910232545 27.432354044574737,45.906683910232545 C27.475323044574736,46.91449691023254 27.307354044574737,47.887152910232544 27.721416044574738,48.51996591023254 C31.170635044574738,48.05512191023254 34.67844704457474,47.754339910232545 38.412823044574736,47.652777910232544 C37.59251004457474,47.30512191023254 36.61594704457474,46.97699691023254 35.54563504457474,46.38324691023254 C34.96360404457474,46.059027910232544 33.13547904457474,45.387152910232544 32.97141604457474,44.844183910232545 C32.70188504457474,43.980902910232544 33.67063504457474,43.51996591023254 33.83469704457474,42.777777910232544 C32.09251004457474,43.715277910232544 31.752666044574738,41.879339910232545 31.342510044574738,40.578558910232545 C30.967510044574738,39.39887191023254 30.756573044574736,38.51996591023254 30.662823044574736,37.840277910232544 C29.162823044574736,37.137152910232544 27.561260044574738,36.422308910232545 26.268291044574738,35.516058910232545 zM43.73313504457474,33.637152910232544 C46.13547904457474,32.48871591023254 46.569073044574736,37.934027910232544 45.62376004457474,39.687933910232545 C45.77219704457474,40.20746591023254 46.27219704457474,40.410589910232545 46.475323044574736,40.879339910232545 C45.13547904457474,43.250433910232545 43.64719704457474,45.46137191023254 42.27610404457474,47.80121591023254 C43.29563504457474,47.17621591023254 44.74876004457474,47.691839910232545 45.94797904457474,47.223089910232545 C46.38547904457474,47.05121591023254 46.70188504457474,46.062933910232545 47.03391604457474,45.27387191023254 C47.944073044574736,43.098089910232545 48.90110404457474,40.35199691023254 49.32688504457474,38.277777910232544 C49.42454104457474,37.80512191023254 49.68626004457474,36.77387191023254 49.62766604457474,36.35199691023254 C49.52219704457474,35.598089910232545 48.48704104457474,35.03949691023254 47.95969704457474,34.574652910232544 C46.98704104457474,33.71137191023254 46.37376004457474,32.953558910232545 45.36204104457474,32.14887191023254 C44.94797904457474,32.750433910232545 44.069073044574736,33.14887191023254 43.73313504457474,33.637152910232544 zM20.77219704457474,12.621527910232544 C19.627666044574738,13.863715910232544 19.86594704457474,16.191839910232545 20.006573044574736,17.848089910232545 C22.076885044574738,16.562933910232545 24.822979044574737,17.949652910232544 24.795635044574738,20.133246910232543 C25.783916044574738,20.105902910232544 25.166729044574737,18.914496910232543 24.987041044574738,18.148871910232543 C24.401104044574737,15.641058910232545 25.971416044574738,12.918402910232544 25.057354044574737,10.625433910232545 C23.283916044574738,10.758246910232543 21.830791044574738,11.473089910232543 20.77219704457474,12.621527910232544 zM28.963604044574737,5.4066839102325455 C26.373760044574738,6.133246910232544 23.049541044574738,7.9887159102325445 21.987041044574738,10.285589910232543 C22.811260044574738,10.168402910232544 23.381573044574736,9.758246910232543 24.197979044574737,9.707465910232544 C24.502666044574738,9.687933910232545 24.908916044574738,9.836371910232543 25.260479044574737,9.746527910232544 C25.963604044574737,9.574652910232544 26.557354044574737,8.019965910232543 27.088604044574737,7.437933910232544 C27.608135044574738,6.871527910232544 28.229229044574737,6.633246910232544 28.655010044574738,6.1137159102325445 C28.932354044574737,5.984808910232545 29.33469704457474,5.992621910232544 29.350323044574736,5.590277910232544 C29.233135044574738,5.465277910232544 29.108135044574738,5.367621910232544 28.963604044574737,5.4066839102325455 zM42.45579104457474,6.090277910232544 C39.76829104457474,4.594183910232544 35.21360404457474,3.465277910232544 32.350323044574736,4.871527910232544 C30.041729044574737,6.008246910232544 26.920635044574738,7.887152910232544 25.858135044574738,10.269965910232544 C26.850323044574736,12.566839910232543 25.561260044574738,14.672308910232545 25.479229044574737,17.004339910232545 C25.436260044574738,18.246527910232544 26.072979044574737,19.328558910232545 26.119854044574737,20.680121910232543 C25.780010044574738,21.234808910232545 24.74094704457474,21.301215910232543 24.02219704457474,21.266058910232545 C23.780010044574738,20.070746910232543 23.358135044574738,18.726996910232543 22.108135044574738,18.590277910232544 C20.342510044574738,18.398871910232543 19.05344704457474,19.840277910232544 18.971416044574738,21.348089910232545 C18.877666044574738,23.121527910232544 20.350323044574736,26.055121910232543 22.440166044574738,25.851996910232543 C23.248760044574738,25.773871910232543 23.447979044574737,24.976996910232543 24.326885044574738,24.984808910232545 C24.80344704457474,25.922308910232545 23.588604044574737,26.215277910232544 23.467510044574738,26.887152910232544 C23.432354044574737,27.059027910232544 23.565166044574738,27.738715910232543 23.643291044574738,28.055121910232543 C24.02219704457474,29.601996910232543 24.869854044574737,31.605902910232544 25.701885044574738,32.781683910232545 C26.760479044574737,34.277777910232544 28.83469704457474,34.500433910232545 31.069073044574736,34.64887191023254 C31.471416044574738,33.80121591023254 32.94016604457474,33.871527910232544 33.89719704457474,34.090277910232544 C32.74876004457474,33.64496591023254 31.682354044574737,32.55512191023254 30.799541044574738,31.594183910232545 C29.780010044574738,30.488715910232543 28.752666044574738,29.305121910232543 28.701885044574738,27.863715910232543 C30.619854044574737,30.488715910232543 32.20579104457474,32.785589910232545 35.69797904457474,33.937933910232545 C38.33860404457474,34.812933910232545 41.42454104457474,33.53949691023254 43.45579104457474,32.13324691023254 C44.29563504457474,31.547308910232545 44.79954104457474,30.621527910232544 45.39719704457474,29.773871910232543 C47.63938504457474,26.594183910232545 48.68235404457474,22.059027910232544 48.45188504457474,17.660589910232545 C48.35813504457474,15.848089910232543 48.36204104457474,14.039496910232543 47.74485404457474,12.820746910232543 C47.100323044574736,11.543402910232544 44.92063504457474,10.402777910232544 43.64329104457474,11.559027910232544 C43.40891604457474,10.316839910232543 44.70579104457474,9.551215910232543 46.22922904457474,9.996527910232544 C45.14329104457474,8.613715910232544 44.00266604457474,6.949652910232544 42.45579104457474,6.090277910232544 zM47.47141604457474,47.004339910232545 C49.57297904457474,45.973089910232545 53.49876004457474,44.230902910232544 54.819073044574736,47.00824691023254 C55.30344704457474,48.031683910232545 55.87376004457474,49.762152910232544 56.12766604457474,50.82074691023254 C56.48313504457474,52.312933910232545 55.74094704457474,55.44574691023254 54.18626004457474,55.94574691023254 C52.81516604457474,56.391058910232545 51.21360404457474,56.36371591023254 49.55735404457474,56.035589910232545 C49.36204104457474,55.875433910232545 49.14719704457474,55.598089910232545 48.99485404457474,55.30512191023254 C47.81516604457474,55.262152910232544 46.70969704457474,55.36762191023254 45.77610404457474,55.848089910232545 C45.86594704457474,56.70746591023254 45.27219704457474,56.848089910232545 44.72141604457474,57.02387191023254 C44.31126004457474,58.629339910232545 45.54172904457474,60.72699691023254 45.24485404457474,62.191839910232545 C45.037823044574736,63.234808910232545 43.73704104457474,63.39496591023254 42.78001004457474,63.590277910232544 C42.74876004457474,64.16840291023254 42.82297904457474,64.65277791023254 42.88547904457474,65.14496591023254 C42.66672904457474,65.93793391023254 41.68626004457474,66.39105891023254 40.756573044574736,66.50043391023254 C37.70188504457474,66.86371591023254 33.06126004457474,67.02777791023254 30.119854044574737,65.98480891023254 C29.299541044574738,63.996527910232544 28.655010044574738,61.58246591023254 27.971416044574738,59.316839910232545 C25.100323044574736,59.61762191023254 22.783916044574738,58.098089910232545 20.596416044574738,57.098089910232545 C19.838604044574737,56.754339910232545 18.791729044574737,56.562933910232545 18.510479044574737,55.969183910232545 C18.237041044574738,55.391058910232545 18.346416044574738,54.28949691023254 18.280010044574738,53.246527910232544 C18.108135044574738,50.58637191023254 17.95969704457474,48.01996591023254 17.244854044574737,45.297308910232545 C16.924541044574738,44.074652910232544 16.369854044574737,42.996527910232544 15.979229044574737,41.816839910232545 C15.619854044574737,40.72699691023254 14.990947044574739,39.375433910232545 14.826885044574738,38.285589910232545 C14.584697044574739,36.672308910232545 16.123760044574738,36.58246591023254 17.112041044574738,35.88324691023254 C18.631573044574736,34.80512191023254 19.826885044574738,34.20746591023254 21.479229044574737,33.230902910232544 C21.967510044574738,32.941839910232545 23.440166044574738,32.20746591023254 23.608135044574738,31.871527910232544 C23.940166044574738,31.203558910232545 23.033916044574738,30.262152910232544 22.791729044574737,29.738715910232543 C22.408916044574738,28.910589910232545 22.20969704457474,28.207465910232543 22.155010044574738,27.391058910232545 C20.77219704457474,27.176215910232543 19.725323044574736,26.363715910232543 19.088604044574737,25.445746910232543 C18.041729044574737,23.934027910232544 17.315166044574738,21.129339910232545 18.221416044574738,18.996527910232544 C18.291729044574737,18.828558910232545 18.64719704457474,18.496527910232544 18.701885044574738,18.238715910232543 C18.80344704457474,17.730902910232544 18.506573044574736,17.055121910232543 18.487041044574738,16.516058910232545 C18.393291044574738,13.742621910232543 18.963604044574737,11.355902910232544 20.854229044574737,10.519965910232544 C21.623760044574738,7.504339910232543 24.369854044574737,6.500433910232545 26.95969704457474,5.000433910232545 C27.92844704457474,4.4379339102325455 28.994854044574737,4.0824659102325445 30.100323044574736,3.680121910232544 C34.05344704457474,2.246527910232544 40.11594704457474,2.516058910232544 43.39719704457474,4.965277910232544 C44.79172904457474,6.000433910232545 47.01438504457474,8.191839910232545 47.81126004457474,9.781683910232545 C49.90891604457474,13.969183910232545 49.76047904457474,20.969183910232545 48.29172904457474,26.066839910232545 C48.09251004457474,26.750433910232545 47.80735404457474,27.754339910232545 47.40891604457474,28.578558910232545 C47.12766604457474,29.148871910232543 46.26047904457474,30.297308910232545 46.36594704457474,30.805121910232543 C46.475323044574736,31.328558910232545 48.34251004457474,32.72699691023254 48.74485404457474,33.109808910232545 C49.46751004457474,33.797308910232545 50.83469704457474,34.70746591023254 50.94797904457474,35.574652910232544 C51.06516604457474,36.496527910232544 50.53391604457474,37.754339910232545 50.26829104457474,38.64496591023254 C49.36594704457474,41.61371591023254 48.49094704457474,44.355902910232544 47.47141604457474,47.004339910232545 " id="svg_55"/>
<path style=" stroke:none;fill-rule:evenodd;fill:rgb(96.862745%,89.411765%,80.392157%);fill-opacity:1;" d="M33.444073044574736,26.457465910232543 C33.55735404457474,26.305121910232543 34.18626004457474,26.078558910232545 35.06126004457474,26.496527910232544 C35.06126004457474,26.496527910232544 34.02219704457474,26.668402910232544 34.10813504457474,28.375433910232545 L33.67454104457474,28.289496910232543 C33.67454104457474,28.289496910232543 33.22922904457474,26.738715910232543 33.444073044574736,26.457465910232543 " id="svg_56"/>
<path style=" stroke:none;fill-rule:evenodd;fill:rgb(11.372549%,9.803922%,9.803922%);fill-opacity:1;" d="M41.04172904457474,41.152777910232544 C41.04172904457474,41.41449691023254 40.82688504457474,41.625433910232545 40.56516604457474,41.625433910232545 C40.30344704457474,41.625433910232545 40.08860404457474,41.41449691023254 40.08860404457474,41.152777910232544 C40.08860404457474,40.89496591023254 40.30344704457474,40.684027910232544 40.56516604457474,40.684027910232544 C40.82688504457474,40.684027910232544 41.04172904457474,40.89496591023254 41.04172904457474,41.152777910232544 " id="svg_57"/>
<path style=" stroke:none;fill-rule:evenodd;fill:rgb(11.372549%,9.803922%,9.803922%);fill-opacity:1;" d="M41.51829104457474,43.33246591023254 C41.51829104457474,43.594183910232545 41.30344704457474,43.80121591023254 41.04172904457474,43.80121591023254 C40.78001004457474,43.80121591023254 40.56516604457474,43.594183910232545 40.56516604457474,43.33246591023254 C40.56516604457474,43.074652910232544 40.78001004457474,42.86371591023254 41.04172904457474,42.86371591023254 C41.30344704457474,42.86371591023254 41.51829104457474,43.074652910232544 41.51829104457474,43.33246591023254 " id="svg_58"/>
</g></g></svg>