<?xml version="1.0" encoding="UTF-8"?>
<svg width="68px" height="68px" viewBox="0 0 68 68" version="1.1" xmlns="http://www.w3.org/2000/svg" xmlns:xlink="http://www.w3.org/1999/xlink">
    <!-- Generator: Sketch 57.1 (83088) - https://sketch.com -->
    <title>img-postman+paw</title>
    <desc>Created with Sketch.</desc>
    <g id="img-postman+paw" stroke="none" stroke-width="1" fill="none" fill-rule="evenodd">
        <g id="2-tools">
            <rect id="Rectangle" fill="#D8D8D8" opacity="0" x="0" y="0" width="128" height="52"></rect>
            <g id="Group" stroke-width="1">
                <g id="Image-/-Tools-we-use-/-img-postman">
                    <g id="postman" transform="translate(7.000000, 8.000000)">
                        <g id="Group" transform="translate(0.446668, 0.295426)" fill-rule="nonzero">
                            <path d="M46.8522962,10.1710343 C38.0222755,-1.25783052 21.6024199,-3.36513775 10.173555,5.46488288 C-1.25278911,14.2949035 -3.36009635,30.7147592 5.46992429,42.1411033 C14.2974242,53.5699682 30.7172799,55.6797961 42.1461447,46.8497755 C53.5750096,38.0222755 55.6823168,21.5973785 46.8522962,10.1710343 Z" id="Path" fill="#FF6C37"></path>
                            <path d="M31.3020828,17.3323499 C29.4191181,18.1919095 26.353944,20.7907537 21.3805981,25.743934 L22.7947121,27.158048 L23.2660835,27.6319401 L32.8775219,18.0205017 C33.1774855,17.7205381 33.5581115,17.569296 33.9488204,17.501237 C33.2354616,16.9668481 32.5498306,16.7626712 31.3020828,17.3323499 M35.5419043,20.999972 L25.4817809,29.8400754 C26.3766303,30.7374455 26.8681673,31.2264618 27.1202375,31.4810527 C31.1054681,27.6999991 34.8991252,23.8433243 35.5419043,20.999972 M18.3582758,28.8116288 C18.3734001,28.8368359 18.3885243,28.8343152 18.4036485,28.8317945 L22.4796243,27.9520693 L20.8285642,26.3035299 L18.3633172,28.7662562 C18.3557551,28.7712976 18.3431516,28.7813804 18.3582758,28.8116288 M36.8375454,15.1519423 L40.2480558,11.7414319 C39.559904,11.2045223 38.7255515,10.9398486 37.891199,10.9398486 C36.9056044,10.9398486 35.9200097,11.3129125 35.1789232,12.0565198 C34.4529609,12.7824821 34.0546899,13.7453904 34.0546899,14.7713163 C34.0546899,15.7972422 34.4529609,16.7626712 35.1789232,17.4886335 C36.2930737,18.6053047 37.9794236,18.9254339 39.4263068,18.2927376 L36.8400661,15.7090176 C36.7669657,15.6359172 36.7241138,15.5350891 36.7241138,15.4317403 C36.7215931,15.3258708 36.764445,15.2275634 36.8375454,15.1519423" id="Shape" fill="#FFFFFF"></path>
                            <path d="M40.4950846,16.0417503 C40.4270257,16.0417503 40.3589667,16.0165433 40.3009905,15.9711706 C40.1749554,15.8653011 40.1547898,15.6737277 40.26318,15.5451719 C40.4925639,15.2678947 40.5354159,14.8822272 40.3715702,14.562098 C40.2984698,14.4133765 40.3589667,14.231886 40.5076881,14.1562649 C40.6564096,14.0831645 40.8379002,14.1436614 40.9135212,14.2923828 C41.1807157,14.8267717 41.1076153,15.4720716 40.7244686,15.9308394 C40.6690131,16.0014191 40.5833092,16.0417503 40.4950846,16.0417503 L40.4950846,16.0417503 Z M40.8177345,12.2783416 L37.6693772,15.4317403 L40.1295828,17.8919459 C40.3009905,17.7709522 40.4597948,17.6348342 40.6110369,17.4886335 C41.3369992,16.7626712 41.7352702,15.7972422 41.7352702,14.7713163 C41.7352702,13.8487392 41.4126203,12.9765761 40.8177345,12.2783416 L40.8177345,12.2783416 Z M33.4320764,18.5725355 L23.8483657,28.1587669 L24.9499127,29.2603139 L35.0982607,20.3471101 C35.3528517,20.1227675 35.4990524,19.8102004 35.5091352,19.4724263 C35.519218,19.1321315 35.3931829,18.8120023 35.1537162,18.5700148 C34.6798241,18.0986435 33.9084892,18.0986435 33.4320764,18.5725355 L33.4320764,18.5725355 Z M15.5502133,39.017953 C15.5502133,39.017953 15.552734,39.017953 15.5552547,39.0154323 C20.1252882,36.7241138 23.8181173,34.367257 26.5354345,32.0078795 L24.9852025,30.4601682 L20.9117474,31.0928645 L12.8454996,39.1591123 L15.4266989,41.7403116 C15.4897165,41.8008085 15.552734,41.7856843 15.595586,41.7655187 C15.6384379,41.7403116 15.6838106,41.694939 15.6661656,41.6092351 L15.2250427,39.721229 C15.1595044,39.4389103 15.2931017,39.1515502 15.5502133,39.017953 L15.5502133,39.017953 Z M14.6150327,42.0377545 L12.2909451,39.7136669 L10.3197558,41.6848562 C10.3121937,41.6898976 10.3046316,41.6999804 10.3121937,41.720146 C10.3197558,41.7428323 10.33488,41.745353 10.3424421,41.745353 L14.6150327,42.0377545 Z M21.9553182,30.0518144 L21.9628803,30.0518144 C21.9704424,30.0518144 21.9855666,30.0543351 21.9931288,30.0543351 L24.2844473,29.7568923 L23.2711249,28.7385285 L21.9553182,30.0518144 Z" id="Shape" fill="#FFFFFF"></path>
                            <path d="M40.9160419,14.2923828 C40.8429416,14.1436614 40.6589303,14.0806438 40.5076881,14.1562649 C40.3589667,14.2293652 40.2984698,14.4108558 40.3715702,14.562098 C40.5328952,14.8822272 40.4900432,15.2678947 40.2606593,15.5451719 C40.1522691,15.6737277 40.1724347,15.8653011 40.3009905,15.9711706 C40.356446,16.0165433 40.424505,16.0417503 40.4950846,16.0417503 C40.5833092,16.0417503 40.6664924,16.0014191 40.7269893,15.9308394 C41.110136,15.4720716 41.1832364,14.8267717 40.9160419,14.2923828" id="Path" fill="#FF6C37"></path>
                        </g>
                    </g>
                </g>
            </g>
        </g>
    </g>
</svg>