<?xml version="1.0" encoding="UTF-8"?>
<svg width="68px" height="68px" viewBox="0 0 68 68" version="1.1" xmlns="http://www.w3.org/2000/svg" xmlns:xlink="http://www.w3.org/1999/xlink">
    <!-- Generator: Sketch 57.1 (83088) - https://sketch.com -->
    <title>Image / Tools we use / img-python</title>
    <desc>Created with Sketch.</desc>
    <defs>
        <linearGradient x1="12.959%" y1="12.039%" x2="79.639%" y2="78.201%" id="linearGradient-1">
            <stop stop-color="#387EB8" offset="0%"></stop>
            <stop stop-color="#366994" offset="100%"></stop>
        </linearGradient>
        <linearGradient x1="19.128%" y1="20.579%" x2="90.742%" y2="88.429%" id="linearGradient-2">
            <stop stop-color="#FFE052" offset="0%"></stop>
            <stop stop-color="#FFC331" offset="100%"></stop>
        </linearGradient>
    </defs>
    <g id="Image-/-Tools-we-use-/-img-python" stroke="none" stroke-width="1" fill="none" fill-rule="evenodd">
        <g id="python-5" transform="translate(4.000000, 4.000000)" fill-rule="nonzero">
            <path d="M29.7459375,0.016875 C14.5509375,0.016875 15.4996875,6.60632812 15.4996875,6.60632812 L15.5165625,13.4332031 L30.016875,13.4332031 L30.016875,15.4828125 L9.75726562,15.4828125 C9.75726562,15.4828125 0.033984375,14.3800781 0.033984375,29.7117187 C0.033984375,45.0438281 8.52070312,44.5000781 8.52070312,44.5000781 L13.5855469,44.5000781 L13.5855469,37.3853906 C13.5855469,37.3853906 13.3125,28.8986719 21.9367969,28.8986719 L36.3185156,28.8986719 C36.3185156,28.8986719 44.3985937,29.0292187 44.3985937,21.0895312 L44.3985937,7.96171875 C44.3985937,7.96171875 45.6257813,0.016875 29.7459375,0.016875 Z M21.7504688,4.60781144 C22.4425015,4.60718989 23.1063693,4.88182314 23.5957106,5.3711644 C24.0850519,5.86050565 24.3596851,6.52437349 24.3590636,7.21640625 C24.3596851,7.90843901 24.0850519,8.57230685 23.5957106,9.0616481 C23.1063693,9.55098936 22.4425015,9.82562261 21.7504688,9.82500106 C21.058436,9.82562261 20.3945682,9.55098936 19.9052269,9.0616481 C19.4158856,8.57230685 19.1412524,7.90843901 19.1418739,7.21640625 C19.1412524,6.52437349 19.4158856,5.86050565 19.9052269,5.3711644 C20.3945682,4.88182314 21.058436,4.60718989 21.7504688,4.60781144 L21.7504688,4.60781144 Z" id="Shape" fill="url(#linearGradient-1)"></path>
            <path d="M30.1774219,59.5607812 C45.3724219,59.5607812 44.4236719,52.9713281 44.4236719,52.9713281 L44.4067969,46.1446875 L29.90625,46.1446875 L29.90625,44.0950781 L50.1658594,44.0950781 C50.1658594,44.0950781 59.8891406,45.1978125 59.8891406,29.8657031 C59.8891406,14.5338281 51.4024219,15.0775781 51.4024219,15.0775781 L46.3375781,15.0775781 L46.3375781,22.1920312 C46.3375781,22.1920312 46.610625,30.67875 37.9863281,30.67875 L23.6046094,30.67875 C23.6046094,30.67875 15.5245312,30.5482031 15.5245312,38.488125 L15.5245312,51.6161719 C15.5245312,51.6161719 14.2975781,59.5607812 30.1771875,59.5607812 L30.1774219,59.5607812 Z M38.1728906,54.9703136 C37.4808579,54.9709351 36.81699,54.6963019 36.3276488,54.2069606 C35.8383075,53.7176193 35.5636743,53.0537515 35.5642956,52.3617188 C35.563612,51.6696454 35.8382178,51.0057173 36.3275658,50.5163253 C36.8169138,50.0269333 37.4808172,49.7522679 38.1728906,49.7528896 C38.8649234,49.752268 39.5287912,50.0269013 40.0181325,50.5162425 C40.5074737,51.0055838 40.782107,51.6694516 40.7814854,52.3614844 C40.782107,53.0535171 40.5074737,53.717385 40.0181325,54.2067262 C39.5287912,54.6960675 38.8649234,54.9707007 38.1728906,54.9700781 L38.1728906,54.9703136 Z" id="Shape" fill="url(#linearGradient-2)"></path>
        </g>
    </g>
</svg>