<svg xmlns="http://www.w3.org/2000/svg" xmlns:xlink="http://www.w3.org/1999/xlink" width="68" height="68" version="1.1" style=""><rect id="backgroundrect" width="100%" height="100%" x="0" y="0" fill="none" stroke="none" class="" style=""/>

<g class="currentLayer" style=""><title>Layer 1</title><g id="surface1" class="">
<path style=" stroke:none;fill-rule:nonzero;fill:rgb(81.176471%,39.215686%,60.392157%);fill-opacity:1;" d="M59.706101179122925,38.8206844329834 C57.331101179122925,38.8363094329834 55.272507179122925,39.4066214329834 53.545945179122924,40.2581844329834 C52.909226179122925,38.9964654329834 52.268601179122925,37.8909974329834 52.163132179122925,37.0706844329834 C52.045945179122924,36.1136534329834 51.897507179122925,35.5277154329834 52.045945179122924,34.3870904329834 C52.190476179122925,33.2425594329834 52.854538179122926,31.6253714329834 52.854538179122926,31.4925594329834 C52.842820179122924,31.3714654329834 52.710007179122925,30.785528432983398 51.33891417912292,30.7738094329834 C49.971726179122925,30.7620904329834 48.792038179122926,31.0394344329834 48.659226179122925,31.3988094329834 C48.52641417912292,31.7581844329834 48.260788179122926,32.5784974329834 48.085007179122925,33.4300594329834 C47.846726179122925,34.6800594329834 45.350632179122925,39.1019344329834 43.928757179122925,41.4261534329834 C43.46391417912292,40.5238094329834 43.065476179122925,39.7269344329834 42.987351179122925,39.0863094329834 C42.866257179122925,38.1331844329834 42.721726179122925,37.5472474329834 42.866257179122925,36.4066214329834 C43.014695179122924,35.2620904329834 43.678757179122925,33.6409974329834 43.678757179122925,33.5081844329834 C43.663132179122925,33.3909974329834 43.530320179122924,32.8050594329834 42.163132179122925,32.7933404329834 C40.795945179122924,32.7777154329834 39.612351179122925,33.0589654329834 39.479538179122926,33.4183404329834 C39.346726179122925,33.7738094329834 39.202195179122924,34.6253714329834 38.909226179122925,35.4495904329834 C38.631882179122925,36.2738094329834 35.311570179122924,43.6566214329834 34.448288179122926,45.5824034329834 C34.006882179122925,46.5667784329834 33.624070179122924,47.3480284329834 33.342820179122924,47.8792784329834 C33.065476179122925,48.4105284329834 33.331101179122925,47.9183404329834 33.303757179122925,47.9730284329834 C33.065476179122925,48.4261534329834 32.93266417912292,48.6761534329834 32.93266417912292,48.6761534329834 L32.93266417912292,48.6917784329834 C32.74516417912292,49.0238094329834 32.545945179122924,49.3402154329834 32.456101179122925,49.3402154329834 C32.389695179122924,49.3402154329834 32.256882179122925,48.4495904329834 32.479538179122926,47.2308404329834 C32.971726179122925,44.6644344329834 34.167038179122926,40.6683404329834 34.155320179122924,40.5238094329834 C34.155320179122924,40.4574034329834 34.381882179122925,39.7503714329834 33.385788179122926,39.3949034329834 C32.413132179122925,39.0355284329834 32.069382179122925,39.6331844329834 31.991257179122925,39.6331844329834 C31.909226179122925,39.6331844329834 31.842820179122924,39.8441214329834 31.842820179122924,39.8441214329834 C31.842820179122924,39.8441214329834 32.920945179122924,35.3441214329834 29.784226179122925,35.3441214329834 C27.819382179122925,35.3441214329834 25.108445179122924,37.4808404329834 23.768601179122925,39.4339654329834 C22.917038179122926,39.8988094329834 21.112351179122925,40.8792784329834 19.198288179122926,41.9300594329834 C18.467820179122924,42.3284974329834 17.713914179122924,42.7542784329834 16.995164179122924,43.1370904329834 L16.850632179122925,42.9808404329834 C13.049851179122925,38.9300594329834 6.026414179122925,36.0589654329834 6.315476179122925,30.613653432983398 C6.424851179122925,28.6370904329834 7.112351179122925,23.4144344329834 19.811570179122924,17.0941214329834 C30.210007179122925,11.914434432983398 38.538132179122925,13.336309432983398 39.983445179122924,16.4964654329834 C42.042038179122926,21.0120904329834 35.534226179122925,29.4066214329834 24.725632179122925,30.613653432983398 C20.608445179122924,31.078497432983397 18.444382179122925,29.484747432983397 17.897507179122925,28.8870904329834 C17.327195179122924,28.2620904329834 17.249070179122924,28.238653432983398 17.034226179122925,28.3558404329834 C16.690476179122925,28.5433404329834 16.901414179122924,29.1019344329834 17.034226179122925,29.4339654329834 C17.354538179122926,30.269903432983398 18.682664179122924,31.7581844329834 20.940476179122925,32.5003714329834 C22.917038179122926,33.1527154329834 27.752976179122925,33.5081844329834 33.596726179122925,31.2503714329834 C40.143601179122925,28.7152154329834 45.256882179122925,21.676153432983398 43.756882179122925,15.793340432983399 C42.229538179122926,9.801153432983398 32.295945179122924,7.836309432983398 22.905320179122924,11.172247432983399 C17.315476179122925,13.164434432983398 11.256882179122925,16.269903432983398 6.901414179122925,20.348028432983398 C1.7217261791229248,25.1839654329834 0.8975071791229248,29.4066214329834 1.2451636791229248,31.160528432983398 C2.452195179122925,37.4144344329834 11.073288179122924,41.4925594329834 14.526414179122925,44.5081844329834 C14.350632179122925,44.5980284329834 14.194382179122925,44.6917784329834 14.045945179122924,44.7738094329834 C12.319382179122925,45.6214654329834 5.745164179122925,49.0628714329834 4.1006321791229245,52.6995904329834 C2.2412571791229245,56.8167784329834 4.389695179122925,59.7816214329834 5.827195179122925,60.1800594329834 C10.260788179122924,61.4144344329834 14.803757179122925,59.1956844329834 17.260788179122926,55.5433404329834 C19.706101179122925,51.8909974329834 19.413132179122925,47.1488094329834 18.284226179122925,44.9847474329834 L18.245164179122924,44.9066214329834 L19.596726179122925,44.1097474329834 C20.475632179122925,43.5902154329834 21.338914179122924,43.1136534329834 22.096726179122925,42.6995904329834 C21.670945179122924,43.8558404329834 21.366257179122925,45.2230284329834 21.206101179122925,47.2152154329834 C21.018601179122925,49.5550594329834 21.975632179122925,52.5824034329834 23.237351179122925,53.7777154329834 C23.795945179122924,54.2933404329834 24.460007179122925,54.3089654329834 24.870164179122924,54.3089654329834 C26.331101179122925,54.3089654329834 26.995164179122924,53.0980284329834 27.725632179122925,51.6527154329834 C28.627976179122925,49.8870904329834 29.424851179122925,47.8402154329834 29.424851179122925,47.8402154329834 C29.424851179122925,47.8402154329834 28.428757179122925,53.3792784329834 31.151414179122924,53.3792784329834 C32.147507179122925,53.3792784329834 33.143601179122925,52.0902154329834 33.596726179122925,51.4261534329834 L33.596726179122925,51.4378714329834 C33.596726179122925,51.4378714329834 33.624070179122924,51.3988094329834 33.674851179122925,51.3050594329834 C33.733445179122924,51.2230284329834 33.784226179122925,51.1409974329834 33.835007179122925,51.0550594329834 L33.835007179122925,51.0277154329834 C34.233445179122924,50.3363094329834 35.124070179122924,48.7581844329834 36.452195179122924,46.1409974329834 C38.167038179122926,42.7659974329834 39.811570179122924,38.5433404329834 39.811570179122924,38.5433404329834 C39.811570179122924,38.5433404329834 39.971726179122925,39.5784974329834 40.46391417912292,41.2777154329834 C40.756882179122925,42.2894344329834 41.393601179122925,43.3909974329834 41.885788179122926,44.4652154329834 C41.487351179122925,45.0238094329834 41.24516417912292,45.3441214329834 41.24516417912292,45.3441214329834 L41.260788179122926,45.3558404329834 C40.940476179122925,45.7816214329834 40.581101179122925,46.2347474329834 40.210007179122925,46.6839654329834 C38.854538179122926,48.3050594329834 37.237351179122925,50.1527154329834 37.022507179122925,50.6839654329834 C36.772507179122925,51.3050594329834 36.823288179122926,51.7699034329834 37.315476179122925,52.1449034329834 C37.674851179122925,52.4105284329834 38.311570179122924,52.4613094329834 38.987351179122925,52.4105284329834 C40.210007179122925,52.3284974329834 41.061570179122924,52.0238094329834 41.487351179122925,51.8363094329834 C42.15141417912292,51.5980284329834 42.905320179122924,51.2386534329834 43.635788179122926,50.7074034329834 C44.96391417912292,49.7269344329834 45.77641417912292,48.3324034329834 45.694382179122925,46.4730284329834 C45.655320179122924,45.4495904329834 45.323288179122926,44.4417784329834 44.913132179122925,43.4847474329834 C45.030320179122924,43.3128714329834 45.15141417912292,43.1370904329834 45.272507179122925,42.9534974329834 C47.37016417912292,39.8831844329834 48.991257179122925,36.5120904329834 48.991257179122925,36.5120904329834 C48.991257179122925,36.5120904329834 49.147507179122925,37.5472474329834 49.639695179122924,39.2464654329834 C49.893601179122925,40.1097474329834 50.397507179122925,41.0550594329834 50.850632179122925,41.9847474329834 C48.881882179122925,43.5902154329834 47.647507179122925,45.4495904329834 47.221726179122925,46.6722474329834 C46.440476179122925,48.9300594329834 47.049851179122925,49.9534974329834 48.206101179122925,50.1917784329834 C48.725632179122925,50.2972474329834 49.467820179122924,50.0589654329834 50.02641417912292,49.8206844329834 C50.717820179122924,49.5941214329834 51.553757179122925,49.2074034329834 52.323288179122926,48.6370904329834 C53.65141417912292,47.6566214329834 54.924851179122925,46.2855284329834 54.858445179122924,44.4417784329834 C54.819382179122925,43.5902154329834 54.592820179122924,42.7542784329834 54.288132179122925,41.9574034329834 C55.96391417912292,41.2659974329834 58.127976179122925,40.8675594329834 60.877976179122925,41.1995904329834 C66.78813217912293,41.8909974329834 67.95610117912292,45.5824034329834 67.72953817912293,47.1253714329834 C67.50297617912292,48.6644344329834 66.26860117912292,49.5159974329834 65.85844517912292,49.7816214329834 C65.44438217912293,50.0316214329834 65.31157017912292,50.1253714329834 65.35063217912293,50.3128714329834 C65.40532017912292,50.5902154329834 65.59282017912292,50.5784974329834 65.94828817912293,50.5238094329834 C66.44047617912292,50.4456844329834 69.05766417912292,49.2620904329834 69.16313217912293,46.4183404329834 C69.32328817912293,42.7659974329834 65.85844517912292,38.7816214329834 59.706101179122925,38.8206844329834 zM14.127976179122925,54.1878714329834 C12.174851179122925,56.3284974329834 9.424851179122925,57.1370904329834 8.256882179122925,56.4456844329834 C6.995164179122925,55.7152154329834 7.487351179122925,52.5667784329834 9.889695179122924,50.2972474329834 C11.350632179122925,48.9144344329834 13.249070179122924,47.6409974329834 14.499070179122924,46.8558404329834 C14.776414179122925,46.6839654329834 15.202195179122924,46.4339654329834 15.706101179122925,46.1253714329834 C15.788132179122925,46.0745904329834 15.838914179122925,46.0472474329834 15.838914179122925,46.0472474329834 C15.932664179122925,45.9925594329834 16.038132179122925,45.9261534329834 16.143601179122925,45.8597474329834 C17.034226179122925,49.1019344329834 16.186570179122924,51.9456844329834 14.127976179122925,54.1878714329834 zM28.405320179122924,44.4808404329834 C27.725632179122925,46.1409974329834 26.292038179122926,50.4027154329834 25.428757179122925,50.1644344329834 C24.686570179122924,49.9652154329834 24.233445179122924,46.7386534329834 25.284226179122925,43.5511534329834 C25.815476179122925,41.9417784329834 26.944382179122925,40.0316214329834 27.608445179122924,39.2855284329834 C28.682664179122924,38.0902154329834 29.850632179122925,37.6917784329834 30.143601179122925,38.1839654329834 C30.487351179122925,38.8206844329834 28.827195179122924,43.4456844329834 28.405320179122924,44.4808404329834 zM40.18266417912292,50.1097474329834 C39.893601179122925,50.2581844329834 39.627976179122925,50.3636534329834 39.506882179122925,50.2855284329834 C39.413132179122925,50.2308404329834 39.627976179122925,50.0316214329834 39.627976179122925,50.0316214329834 C39.627976179122925,50.0316214329834 41.100632179122925,48.4495904329834 41.686570179122924,47.7191214329834 C42.018601179122925,47.2972474329834 42.417038179122926,46.8050594329834 42.83891417912292,46.2464654329834 L42.83891417912292,46.4066214329834 C42.83891417912292,48.3167784329834 41.006882179122925,49.5941214329834 40.18266417912292,50.1097474329834 zM49.268601179122925,48.0394344329834 C49.05766417912292,47.8792784329834 49.081101179122925,47.3870904329834 49.799851179122925,45.8480284329834 C50.077195179122924,45.2386534329834 50.717820179122924,44.2152154329834 51.819382179122925,43.2464654329834 C51.952195179122924,43.6449034329834 52.030320179122924,44.0277154329834 52.018601179122925,44.3870904329834 C52.002976179122925,46.7777154329834 50.303757179122925,47.6683404329834 49.268601179122925,48.0394344329834 zM49.268601179122925,48.0394344329834 " id="svg_1"/>
</g></g></svg>