<?xml version="1.0" encoding="UTF-8"?>
<svg width="68px" height="68px" viewBox="0 0 68 68" version="1.1" xmlns="http://www.w3.org/2000/svg" xmlns:xlink="http://www.w3.org/1999/xlink">
    <!-- Generator: Sketch 57.1 (83088) - https://sketch.com -->
    <title>Image / Tools we use / img-sensu</title>
    <desc>Created with Sketch.</desc>
    <g id="Image-/-Tools-we-use-/-img-sensu" stroke="none" stroke-width="1" fill="none" fill-rule="evenodd">
        <g id="sensu" transform="translate(4.000000, 16.000000)" fill="#92C72E" fill-rule="nonzero">
            <path d="M60,29.9995313 C60,15.4565625 48.2742188,0 29.9299219,0 C11.5858594,0 0,15.5102344 0,29.9995313 L27.3117188,29.9995313 L24.9194531,30.9405469 C24.9194531,31.6089844 26.1658594,35.1876563 30.080625,35.1876563 C33.9951563,35.1876563 35.1344531,31.4175 35.1344531,30.9435938 L32.7686719,29.9995313 L60,29.9995313 Z M19.1796094,26.3233594 L3.94078125,26.3233594 C4.20703125,21.1553906 10.9408594,3.67804687 30.1345313,3.67804687 C49.8923438,3.67804687 55.9610156,22.4257031 56.0913281,26.3233594 L40.8721875,26.3233594 C40.8721875,26.3233594 38.5617188,18.5336719 30.1342969,18.5336719 C21.706875,18.5336719 19.1796094,26.3233594 19.1796094,26.3233594 Z" id="Shape"></path>
        </g>
    </g>
</svg>