<?xml version="1.0" encoding="UTF-8"?>
<svg width="68px" height="68px" viewBox="0 0 68 68" version="1.1" xmlns="http://www.w3.org/2000/svg" xmlns:xlink="http://www.w3.org/1999/xlink">
    <!-- Generator: Sketch 63.1 (92452) - https://sketch.com -->
    <title>Image / Tools we use / img-tensorflow</title>
    <desc>Created with Sketch.</desc>
    <g id="Image-/-Tools-we-use-/-img-tensorflow" stroke="none" stroke-width="1" fill="none" fill-rule="evenodd">
        <g id="tensorflow-2" transform="translate(9.000000, 7.000000)" fill-rule="nonzero">
            <path d="M28.990848,8.368896 L28.990848,16.737792 L43.48736,25.106688 L43.48736,16.737792 L28.990848,8.368896 Z M0,16.737792 L0,25.106688 L7.248256,29.291136 L7.248256,20.92224 L0,16.737792 Z M21.742592,20.92224 L14.494336,25.106688 L14.494336,50.213376 L21.742592,54.4 L21.742592,37.662208 L28.990848,41.846656 L28.990848,33.47776 L21.742592,29.293312 L21.742592,20.92224 Z" id="Shape" fill="#E55B2D"></path>
            <path d="M28.990848,8.368896 L7.248256,20.92224 L7.248256,29.291136 L21.744768,20.92224 L21.744768,29.291136 L28.993024,25.106688 L28.993024,8.368896 L28.990848,8.368896 Z M50.73344,12.553344 L43.485184,16.737792 L43.485184,25.106688 L50.73344,20.92224 L50.73344,12.553344 Z M36.239104,29.293312 L28.990848,33.47776 L28.990848,41.846656 L36.239104,37.662208 L36.239104,29.293312 Z M28.990848,41.846656 L21.742592,37.662208 L21.742592,54.4 L28.990848,50.215552 L28.990848,41.846656 Z" id="Shape" fill="#ED8E24"></path>
            <path d="M28.990848,0 L0,16.737792 L7.248256,20.92224 L28.990848,8.368896 L43.48736,16.737792 L50.735616,12.553344 L28.990848,0 Z M28.990848,25.106688 L21.742592,29.291136 L28.990848,33.475584 L36.239104,29.291136 L28.990848,25.106688 Z" id="Shape" fill="#F8BF3C"></path>
        </g>
    </g>
</svg>