<svg height="68" viewBox="0 0 68 68" width="68" xmlns="http://www.w3.org/2000/svg"><g fill="none" transform="translate(9 9)"><path d="m.51165147 17.2695035s-1.21580547-.8763931.24316109-2.0466058l3.39918947-3.0395137s.97264437-1.0233029 2.00101317-.1317123l31.3677812 23.7487336v11.3880445s-.0151976 1.7882473-2.3100304 1.5906789z" fill="#2489ca"/><path d="m8.59675785 24.6099291-8.08510638 7.3505572s-.83080041.6180345 0 1.7223911l3.75379939 3.414387s.89159068.9574468 2.20871327-.1317122l8.57142857-6.4994934z" fill="#1070b3"/><path d="m22.7912867 24.6707194 14.8277609-11.3221885-.0962512-11.3272543s-.6332321-2.4721378-2.7456941-1.18541034l-19.7315096 17.95845994z" fill="#0877b9"/><path d="m35.212766 48.7943262c.8611955.881459 1.9047619.5927052 1.9047619.5927052l11.5552178-5.6940223c1.47923-1.0081054 1.2715299-2.2593718 1.2715299-2.2593718v-34.00202636c0-1.49442756-1.5298886-2.01114488-1.5298886-2.01114488l-10.0151975-4.82776089c-2.1884499-1.35258359-3.6220872.24316109-3.6220872.24316109s1.8439717-1.32725431 2.7456941 1.18541034v44.9594731c0 .3090173-.0658562.6129686-.1975684.8865249-.2634246.5319149-.8358663 1.0283688-2.2087133.8206687z" fill="#3c99d4"/></g></svg>